<svg xmlns="http://www.w3.org/2000/svg" xmlns:xlink="http://www.w3.org/1999/xlink" width="117.354" height="133.314" viewBox="0 0 117.354 133.314">
  <defs>
    <clipPath id="clip-path">
      <rect id="Retângulo_71" data-name="Retângulo 71" width="117.354" height="133.314" fill="#fff"/>
    </clipPath>
  </defs>
  <g id="Grupo_178" data-name="Grupo 178" transform="translate(0 0)">
    <g id="Grupo_177" data-name="Grupo 177" transform="translate(0 0)" clip-path="url(#clip-path)">
      <path id="Caminho_644" data-name="Caminho 644" d="M71.457,81.743l41.608,21.619a2.936,2.936,0,0,0,3.774-4.266l-9.723-14.155a6.163,6.163,0,0,0,.655-1.01l2.067-3.976a6.125,6.125,0,0,0-10.482-6.3l-4.331-6.309,1.7-3.269a6.126,6.126,0,0,0-9.212-7.666l-1.289-1.876C97.484,31.246,104.838,4.842,96.6.562c-8.27-4.29-26.915,16.665-39.625,39.4l-3.212.033a6.132,6.132,0,0,0-11.525-3.605L40.29,40.133l-7.6.076a6.134,6.134,0,0,0-2.712-8.046A6.147,6.147,0,0,0,21.7,34.78l-2.065,3.979a6.163,6.163,0,0,0-.541,1.592l-16.19.172a2.936,2.936,0,0,0-1.325,5.541L43.2,67.689c-3.761,9.2-5.249,18.052-6.462,25.284-.418,2.472-.814,4.837-1.262,6.967l-21.794,6.89a2.937,2.937,0,0,0,1.038,5.732c.2-.014,20.86-.838,37.5,19.666A2.936,2.936,0,0,0,57.3,129.5L50.43,107.757q1.143-1.262,2.406-2.635c5.345-5.823,12.516-13.636,18.62-23.378M27.563,108.6l11.3-3.572a2.932,2.932,0,0,0,1.969-2.117c.647-2.715,1.158-5.749,1.7-8.966,1.335-7.958,2.851-16.979,7.123-26.388a2.939,2.939,0,0,0-1.319-3.821L14.719,46.269l6.342-.063a6.3,6.3,0,0,0,1.193.83,6.108,6.108,0,0,0,2.824.7,6.228,6.228,0,0,0,1.86-.287,6.156,6.156,0,0,0,2.27-1.327l10.968-.112a6.13,6.13,0,0,0,10.894.016l.068-.131,7.609-.082a2.932,2.932,0,0,0,2.545-1.529C75.217,18.765,90.033,6.1,93.843,5.841c1.579,2.925-.085,20.2-13.642,47.641a2.931,2.931,0,0,0,.21,2.96l3.665,5.334-.317.614A6.138,6.138,0,0,0,89.2,71.36a6.247,6.247,0,0,0,1.352-.164l5.82,8.477a6.134,6.134,0,0,0,5.167,7.519l3.807,5.544L71.73,75.268a2.936,2.936,0,0,0-3.884,1.117C61.77,86.7,54.418,94.713,48.51,101.153c-1.286,1.4-2.488,2.712-3.58,3.938a2.94,2.94,0,0,0-.6,2.835l3.687,11.664a56.2,56.2,0,0,0-20.45-10.99M23.805,40.925l2.067-3.976a1.435,1.435,0,0,1,1.284-.778,1.37,1.37,0,0,1,.661.164,1.441,1.441,0,0,1,.617,1.942l-2.067,3.976v0a1.443,1.443,0,0,1-2.562-1.33m22.6-2.373a1.443,1.443,0,0,1,2.562,1.33L46.9,43.858a1.45,1.45,0,0,1-.847.713,1.466,1.466,0,0,1-1.1-.1,1.449,1.449,0,0,1-.617-1.947ZM90.839,59.867a1.4,1.4,0,0,1,.437-.068,1.428,1.428,0,0,1,.664.164,1.445,1.445,0,0,1,.713.844,1.462,1.462,0,0,1-.1,1.1l-2.067,3.976a1.444,1.444,0,0,1-2.562-1.333l2.065-3.976a1.428,1.428,0,0,1,.847-.71m10.2,20.565,2.067-3.974a1.432,1.432,0,0,1,.847-.713,1.448,1.448,0,0,1,1.1.1,1.443,1.443,0,0,1,.617,1.947L103.6,81.765a1.431,1.431,0,0,1-.844.71,1.441,1.441,0,0,1-1.813-.942,1.444,1.444,0,0,1,.1-1.1" transform="translate(-0.001 -0.001)" fill="#fff"/>
    </g>
  </g>
</svg>
