<svg xmlns="http://www.w3.org/2000/svg" xmlns:xlink="http://www.w3.org/1999/xlink" width="1274.167" height="862.386" viewBox="0 0 1274.167 862.386">
  <defs>
    <clipPath id="clip-path">
      <rect id="Retângulo_19" data-name="Retângulo 19" width="1168.003" height="633.385" fill="none"/>
    </clipPath>
  </defs>
  <g id="Grupo_25" data-name="Grupo 25" transform="translate(57.608 -1051.726)">
    <ellipse id="Elipse_2" data-name="Elipse 2" cx="333.56" cy="21.187" rx="333.56" ry="21.187" transform="translate(307.035 1621.58)" fill="#000f38" opacity="0.233"/>
    <g id="Grupo_20" data-name="Grupo 20" transform="matrix(0.978, 0.208, -0.208, 0.978, 74.629, 1049.147)">
      <g id="Grupo_17" data-name="Grupo 17" transform="translate(0 2.637)">
        <g id="Grupo_16" data-name="Grupo 16" clip-path="url(#clip-path)">
          <path id="Caminho_179" data-name="Caminho 179" d="M17.8,115.923,299.889,49.878,303.5,65.295l48.9-45.884L288.209,0l3.61,15.418L0,83.741" transform="translate(535.679 0.804)" fill="none" stroke="#001e6c" stroke-linecap="round" stroke-linejoin="round" stroke-width="1"/>
        </g>
      </g>
      <path id="Caminho_180" data-name="Caminho 180" d="M9.279,60.443,156.365,26.007l1.882,8.039,25.5-23.925L150.276,0l1.882,8.039L0,43.662" transform="translate(981.199 173.087)" fill="none" stroke="#001e6c" stroke-linecap="round" stroke-linejoin="round" stroke-width="1"/>
      <path id="Caminho_181" data-name="Caminho 181" d="M565.482,10.363,531.077,0l2.642,11.227L0,136.807l2.947,12.527L536.665,23.754l2.642,11.227Z" transform="translate(476.427 132.755)" fill="#001e6c"/>
      <path id="Caminho_182" data-name="Caminho 182" d="M4.96,107.554l356.146-83.8,2.641,11.226,26.176-24.617L355.517,0l2.642,11.227L0,95.5" transform="translate(290.246 319.827)" fill="none" stroke="#001e6c" stroke-linecap="round" stroke-linejoin="round" stroke-width="1"/>
      <g id="Grupo_19" data-name="Grupo 19" transform="translate(192.823 0)">
        <g id="Grupo_24" data-name="Grupo 24">
          <path id="Caminho_185" data-name="Caminho 185" d="M150.543,33.043S138.735-1.887,119.549.08,100.854,17.3,94.458,21.236,81.667,11.4,70.843,15.825,60.02,27.631,57.56,32.551s-12.3-8.854-22.63-6.887-9.348,14.758-11.808,17.71-9.347-1.475-14.268,0S0,53.705,0,53.705H181.044s-1.967-14.758-10.822-19.187-12.3,5.412-19.679-1.475" transform="matrix(0.985, -0.174, 0.174, 0.985, 761.563, 258.815)" fill="#bfd6ee"/>
          <path id="Caminho_186" data-name="Caminho 186" d="M150.543,33.043S138.736-1.887,119.549.08,100.854,17.3,94.458,21.235,81.667,11.4,70.843,15.825,60.02,27.631,57.56,32.551s-12.3-8.856-22.63-6.887-9.348,14.758-11.808,17.71-9.347-1.475-14.266,0S0,53.705,0,53.705H181.046s-1.969-14.758-10.824-19.187-12.3,5.412-19.68-1.475" transform="matrix(0.978, -0.208, 0.208, 0.978, 198.82, 37.642)" fill="#bfd6ee"/>
          <path id="Caminho_187" data-name="Caminho 187" d="M107.807,23.662S99.352-1.352,85.611.057,72.224,12.388,67.644,15.207s-9.16-7.046-16.911-3.875S42.982,19.787,41.22,23.31s-8.808-6.342-16.206-4.932S18.32,28.947,16.559,31.061,9.865,30,6.342,31.061,0,38.459,0,38.459H129.65s-1.409-10.569-7.751-13.74-8.808,3.875-14.092-1.057" transform="translate(0 348.056) rotate(-11)" fill="#bfd6ee"/>
          <path id="Caminho_188" data-name="Caminho 188" d="M107.807,23.662S99.352-1.352,85.612.057,72.224,12.388,67.644,15.207s-9.16-7.046-16.911-3.875S42.982,19.787,41.22,23.31s-8.808-6.342-16.206-4.932S18.32,28.947,16.559,31.061,9.865,30,6.342,31.061,0,38.459,0,38.459H129.65s-1.409-10.569-7.751-13.74-8.808,3.875-14.092-1.057" transform="translate(675.944 109.411) rotate(-11)" fill="#bfd6ee"/>
          <path id="Caminho_197" data-name="Caminho 197" d="M39.93,14.425l-3.152,108.6s-7.39,5.272-9.3,12.057-8.615,45.935-9.057,46.935-6.208,3.224-6.744,5.468a22.165,22.165,0,0,0-.267,5.581S2.356,202.931.329,214.35s5.737,10.079,11.4,7.257S23.02,201.517,24.5,199.417s4.6-5.407,7.123-8.61,5.363-11.686,5.363-11.686S70.056,132.348,75.925,121.8,88.236,73.425,89.514,70.131s8.132-6.324,8.132-6.324,49.785,21.234,54.676,22.85,55.95,71.659,55.95,71.659.042,7.373,1,9.36,8.021,9.07,8.021,9.07-1.657,6.435,1.742,8.307,15.587-.537,17.678-.9,12.653.277,16.834-.446,11.036-3.748,10.43-5.489-18.267-6.071-21.913-7.595a74.371,74.371,0,0,1-9.194-5.178s-1.557-10.8-2.72-13.981-6.652-4.694-6.869-7.732S190.858,74.78,188.149,71.558s-64.214-53.181-64.214-53.181L114.615,0S104.486,14.355,77.551,16.85,39.93,14.425,39.93,14.425" transform="translate(484.462 231.349)" fill="#090d27"/>
          <path id="Caminho_198" data-name="Caminho 198" d="M39.93,14.425l-3.152,108.6s-7.39,5.272-9.3,12.057-8.615,45.935-9.057,46.935-6.208,3.224-6.744,5.468a22.165,22.165,0,0,0-.267,5.581S2.356,202.931.329,214.35s5.737,10.079,11.4,7.257S23.02,201.517,24.5,199.417s4.6-5.407,7.123-8.61,5.363-11.686,5.363-11.686S70.056,132.348,75.925,121.8,88.236,73.425,89.514,70.131s8.132-6.324,8.132-6.324,49.785,21.234,54.676,22.85,55.95,71.659,55.95,71.659.042,7.373,1,9.36,8.021,9.07,8.021,9.07-1.657,6.435,1.742,8.307,15.587-.537,17.678-.9,12.653.277,16.834-.446,11.036-3.748,10.43-5.489-18.267-6.071-21.913-7.595a74.371,74.371,0,0,1-9.194-5.178s-1.557-10.8-2.72-13.981-6.652-4.694-6.869-7.732S190.858,74.78,188.149,71.558s-64.214-53.181-64.214-53.181L114.615,0S104.486,14.355,77.551,16.85,39.93,14.425,39.93,14.425Z" transform="translate(484.462 231.349)" fill="none" stroke="#001e6c" stroke-linecap="round" stroke-linejoin="round" stroke-width="1"/>
          <path id="Caminho_199" data-name="Caminho 199" d="M26.364,70.649s-27.857,29.971-26.3,34.42S16.985,160.6,16.985,160.6s-3.29,11.314,3.584,17.73,31.9,8.65,50.63,1.749S93.42,160,93.674,152.349,90.415,80.3,90.415,80.3L177.6,11.155,173.6,0,91.409,31.377s-9.437-1.517-25.051,8.254S49.525,51.449,49.525,51.449Z" transform="translate(506.384 76.265)" fill="#fff"/>
          <path id="Caminho_200" data-name="Caminho 200" d="M26.364,70.649s-27.857,29.971-26.3,34.42S16.985,160.6,16.985,160.6s-3.29,11.314,3.584,17.73,31.9,8.65,50.63,1.749S93.42,160,93.674,152.349,90.415,80.3,90.415,80.3L177.6,11.155,173.6,0,91.409,31.377s-9.437-1.517-25.051,8.254S49.525,51.449,49.525,51.449Z" transform="translate(506.384 76.265)" fill="none" stroke="#001e6c" stroke-linecap="round" stroke-linejoin="round" stroke-width="1"/>
          <line id="Linha_25" data-name="Linha 25" y1="36.621" x2="2.593" transform="translate(596.799 119.948)" fill="none" stroke="#001e6c" stroke-linecap="round" stroke-linejoin="round" stroke-width="1"/>
          <line id="Linha_26" data-name="Linha 26" y1="30.717" x2="14.988" transform="translate(606.755 108.326)" fill="none" stroke="#001e6c" stroke-linecap="round" stroke-linejoin="round" stroke-width="1"/>
          <line id="Linha_27" data-name="Linha 27" y1="7.678" x2="3.747" transform="translate(600.845 143.474)" fill="none" stroke="#001e6c" stroke-linecap="round" stroke-linejoin="round" stroke-width="1"/>
          <line id="Linha_28" data-name="Linha 28" y1="21.266" x2="14.972" transform="translate(612.138 113.298)" fill="none" stroke="#001e6c" stroke-linecap="round" stroke-linejoin="round" stroke-width="1"/>
          <line id="Linha_29" data-name="Linha 29" x2="2.934" y2="14.242" transform="translate(671.165 79.521)" fill="#fff"/>
          <line id="Linha_30" data-name="Linha 30" x2="2.934" y2="14.242" transform="translate(671.165 79.521)" fill="none" stroke="#001e6c" stroke-linecap="round" stroke-linejoin="round" stroke-width="1"/>
          <path id="Caminho_201" data-name="Caminho 201" d="M0,16.074,7.506,22.16s6.818,7.432,7.661,6.977,3.161-4.849,4.633-8.793-.4-9.459-.4-9.459L19.086.174,14.752,0l.084,14.744-2.514,3.235L2.275,13.222Z" transform="translate(552.396 153.227)" fill="#2943f9"/>
          <path id="Caminho_202" data-name="Caminho 202" d="M0,24.4S.285,34.228,3.687,41.1,12.461,56.911,14.7,54.711s9.39-19.15,11.245-20.075,19.67,3.055,22.044,1.638-5.664-19.979-9.249-24.4C29.4.353,25.32-.519,23.626.176S.611,11.6,0,24.4" transform="translate(534.749 123.763)" fill="#fff"/>
          <path id="Caminho_203" data-name="Caminho 203" d="M0,24.4S.285,34.228,3.687,41.1,12.461,56.911,14.7,54.711s9.39-19.15,11.245-20.075,19.67,3.055,22.044,1.638-5.664-19.979-9.249-24.4C29.4.353,25.32-.519,23.626.176S.611,11.6,0,24.4Z" transform="translate(534.749 123.763)" fill="none" stroke="#001e6c" stroke-linecap="round" stroke-linejoin="round" stroke-width="1"/>
          <path id="Caminho_204" data-name="Caminho 204" d="M0,41.354a116.681,116.681,0,0,0,12.8,12.3c8,6.679,15.527,15.254,15.905,12.77s-.816-39.755-1.153-41.713a9.356,9.356,0,0,0-1.162-3.224L18.66,10.529,17.754.61s-2.329-1.815-5.9.817S13.066,20.159,10.4,26.866,0,41.354,0,41.354" transform="translate(536.01 104.781)" fill="#fff"/>
          <path id="Caminho_205" data-name="Caminho 205" d="M0,41.354a116.681,116.681,0,0,0,12.8,12.3c8,6.679,15.527,15.254,15.905,12.77s-.816-39.755-1.153-41.713a9.356,9.356,0,0,0-1.162-3.224L18.66,10.529,17.754.61s-2.329-1.815-5.9.817S13.066,20.159,10.4,26.866,0,41.354,0,41.354Z" transform="translate(536.01 104.781)" fill="none" stroke="#001e6c" stroke-linecap="round" stroke-linejoin="round" stroke-width="1"/>
          <path id="Caminho_206" data-name="Caminho 206" d="M9.195,6.525s-5.37,8.584-4.762,12.106S6.587,29.946,5.919,33.083-1.569,42.234.334,43.921s9.049,1.057,9.049,1.057l1.329,4.2s4.339-6.39,11.592-5.224,16.673-1.467,18.088-4.936-.076-13.285-2.154-17.159S31.868,15.307,32.333,11s4.1-7.76-1.2-10.473-21.935,6-21.935,6" transform="translate(504.838 86.984)" fill="#fff"/>
          <path id="Caminho_207" data-name="Caminho 207" d="M9.195,6.525s-5.37,8.584-4.762,12.106S6.587,29.946,5.919,33.083-1.569,42.234.334,43.921s9.049,1.057,9.049,1.057l1.329,4.2s4.339-6.39,11.592-5.224,16.673-1.467,18.088-4.936-.076-13.285-2.154-17.159S31.868,15.307,32.333,11s4.1-7.76-1.2-10.473S9.195,6.525,9.195,6.525Z" transform="translate(504.838 86.984)" fill="none" stroke="#001e6c" stroke-linecap="round" stroke-linejoin="round" stroke-width="1"/>
          <path id="Caminho_208" data-name="Caminho 208" d="M10.525,13.832s-11.14-1.5-10.5,2.215,3.206,6.9,17.053,7.736,17.812-1.865,17.812-1.865-9.438,4.852-5.471,8a60.858,60.858,0,0,0,9.467,5.822s5.6,13.745,5.449,16.39-4.609,4.825-8.555,5.3-9.636-.957-14.487,1.292-6.2,6.107-4.688,7.86,6.7,17.786,9.927,17.833S49.567,70.768,52.145,64.682s-4.469-16.559-2.4-19.737,14.506-3.51,16.4-14.718S57.912,5.856,49.173,1.924s-20.9-.827-23.7.462A24.974,24.974,0,0,0,21.6,4.464s-10.3-2.453-13.737.96,2.659,8.407,2.659,8.407" transform="translate(499.801 71.048)" fill="#090d27"/>
          <path id="Caminho_209" data-name="Caminho 209" d="M10.525,13.832s-11.14-1.5-10.5,2.215,3.206,6.9,17.053,7.736,17.812-1.865,17.812-1.865-9.438,4.852-5.471,8a60.858,60.858,0,0,0,9.467,5.822s5.6,13.745,5.449,16.39-4.609,4.825-8.555,5.3-9.636-.957-14.487,1.292-6.2,6.107-4.688,7.86,6.7,17.786,9.927,17.833S49.567,70.768,52.145,64.682s-4.469-16.559-2.4-19.737,14.506-3.51,16.4-14.718S57.912,5.856,49.173,1.924s-20.9-.827-23.7.462A24.974,24.974,0,0,0,21.6,4.464s-10.3-2.453-13.737.96S10.525,13.832,10.525,13.832Z" transform="translate(499.801 71.048)" fill="none" stroke="#001e6c" stroke-linecap="round" stroke-linejoin="round" stroke-width="1"/>
          <path id="Caminho_210" data-name="Caminho 210" d="M3.222,2.872c.3,1.729-.161,3.251-1.025,3.4S.389,5.142.091,3.413.252.161,1.116.012s1.808,1.131,2.106,2.86" transform="translate(518.223 113.738)" fill="#1a004f"/>
          <path id="Caminho_211" data-name="Caminho 211" d="M0,1.674S1.679-1.437,6.1.823" transform="translate(515.532 108.702)" fill="none" stroke="#001e6c" stroke-linecap="round" stroke-linejoin="round" stroke-width="1"/>
          <path id="Caminho_212" data-name="Caminho 212" d="M0,5.095S3.657,5.27,6.173,0" transform="translate(522.743 133.053)" fill="none" stroke="#fff" stroke-linecap="round" stroke-linejoin="round" stroke-width="1"/>
          <path id="Caminho_213" data-name="Caminho 213" d="M1.365,12.578S-2.28,3.132,2.342.723,10.25,2.179,9.536,8.548s-2.759,8.536-4,8.348" transform="translate(548.135 106.646)" fill="#fff"/>
          <path id="Caminho_214" data-name="Caminho 214" d="M1.365,12.578S-2.28,3.132,2.342.723,10.25,2.179,9.536,8.548s-2.759,8.536-4,8.348" transform="translate(548.135 106.646)" fill="none" stroke="#001e6c" stroke-linecap="round" stroke-linejoin="round" stroke-width="1"/>
          <path id="Caminho_215" data-name="Caminho 215" d="M0,20.784S11.821,1.181,12.961.2,33.23,2.206,33.23,2.206s1.791,1.263.835,4.836-.4,11.34-2.1,12.157a90.841,90.841,0,0,1-8.988,2.6l-.606-1.993s-4.133,4.908-5.618,5.426-7.083,1.485-7.083,1.485L3.336,32.527Z" transform="translate(568.297 186.314)" fill="#fff"/>
          <path id="Caminho_216" data-name="Caminho 216" d="M0,20.784S11.821,1.181,12.961.2,33.23,2.206,33.23,2.206s1.791,1.263.835,4.836-.4,11.34-2.1,12.157a90.841,90.841,0,0,1-8.988,2.6l-.606-1.993s-4.133,4.908-5.618,5.426-7.083,1.485-7.083,1.485L3.336,32.527Z" transform="translate(568.297 186.314)" fill="none" stroke="#001e6c" stroke-linecap="round" stroke-linejoin="round" stroke-width="1"/>
          <path id="Caminho_217" data-name="Caminho 217" d="M15.46,0S2.62,12.176,1.163,17.408-.66,91.9,1.7,96.477s10.6-2.354,11.322-2.74S69.95,52.983,69.95,52.983L66.612,41.238l-38.3,15L30.639,25.69" transform="translate(501.685 165.858)" fill="#fff"/>
          <path id="Caminho_218" data-name="Caminho 218" d="M15.46,0S2.62,12.176,1.163,17.408-.66,91.9,1.7,96.477s10.6-2.354,11.322-2.74S69.95,52.983,69.95,52.983L66.612,41.238l-38.3,15L30.639,25.69" transform="translate(501.685 165.858)" fill="none" stroke="#001e6c" stroke-linecap="round" stroke-linejoin="round" stroke-width="1"/>
          <path id="Caminho_219" data-name="Caminho 219" d="M.558,0C.174,2.482,0,4.418,0,4.418" transform="translate(509.484 240.09)" fill="none" stroke="#001e6c" stroke-linecap="round" stroke-linejoin="round" stroke-width="1"/>
          <path id="Caminho_220" data-name="Caminho 220" d="M19.2,0S5.178,5.3,2.476,7.867C1.408,8.88.594,11.361,0,13.993" transform="translate(510.788 222.096)" fill="none" stroke="#001e6c" stroke-linecap="round" stroke-linejoin="round" stroke-width="1"/>
          <line id="Linha_31" data-name="Linha 31" x2="3.689" y2="13.78" transform="translate(560.415 210.03)" fill="#fff"/>
          <line id="Linha_32" data-name="Linha 32" x2="3.689" y2="13.78" transform="translate(560.415 210.03)" fill="none" stroke="#001e6c" stroke-linecap="round" stroke-linejoin="round" stroke-width="1"/>
          <path id="Caminho_221" data-name="Caminho 221" d="M12.207,0s5.281,1.007,4.878,3.271-5.8,11.089-5.8,11.089S-.406,11.387.011,8.177A8.2,8.2,0,0,1,5.759,1.626C8.606.714,12.207,0,12.207,0" transform="translate(702.048 69.893)" fill="#fff"/>
          <path id="Caminho_222" data-name="Caminho 222" d="M12.207,0s5.281,1.007,4.878,3.271-5.8,11.089-5.8,11.089S-.406,11.387.011,8.177A8.2,8.2,0,0,1,5.759,1.626C8.606.714,12.207,0,12.207,0Z" transform="translate(702.048 69.893)" fill="none" stroke="#001e6c" stroke-linecap="round" stroke-linejoin="round" stroke-width="1"/>
          <path id="Caminho_223" data-name="Caminho 223" d="M0,15.432S13.3,7.679,20.489,7.2,45.522.681,47.987.146s3.02.412,1.1,3.037-6.663,3.892-8.943,4.812-12.519,3.444-13.106,5.14a5.1,5.1,0,0,0,1.261,5.31c1.5,1.338,8.283,3.121,7.88,5.384s-1.168,2.822-2.492,2.807-6.026-1.961-8.292-2.366-7.762.856-10.212.259A35.344,35.344,0,0,1,10.1,22.768L4,26.587Z" transform="translate(679.986 60.833)" fill="#fff"/>
          <path id="Caminho_224" data-name="Caminho 224" d="M0,15.432S13.3,7.679,20.489,7.2,45.522.681,47.987.146s3.02.412,1.1,3.037-6.663,3.892-8.943,4.812-12.519,3.444-13.106,5.14a5.1,5.1,0,0,0,1.261,5.31c1.5,1.338,8.283,3.121,7.88,5.384s-1.168,2.822-2.492,2.807-6.026-1.961-8.292-2.366-7.762.856-10.212.259A35.344,35.344,0,0,1,10.1,22.768L4,26.587Z" transform="translate(679.986 60.833)" fill="none" stroke="#001e6c" stroke-linecap="round" stroke-linejoin="round" stroke-width="1"/>
          <path id="Caminho_225" data-name="Caminho 225" d="M126.582,10.873s-7.695,7.637-22.342,4.609-33-14.018-42.483-15.3S40.372,4.8,30.5,5.619,15.465,3.742,15.465,3.742L0,13.552l17.781,10.8s3.727,2.218,18.3-.219S66.305,13.23,73.2,15.556s27.459,10.548,37.913,8,15.474-12.685,15.474-12.685" transform="translate(440.983 171.492)" fill="#2943f9"/>
          <path id="Caminho_226" data-name="Caminho 226" d="M5.394.195s6.842,3,6.066,3.93a3.342,3.342,0,0,1-3.351.611C7.418,4.39,0,0,0,0Z" transform="translate(425.73 274.075)" fill="#fff"/>
          <path id="Caminho_227" data-name="Caminho 227" d="M5.394.195s6.842,3,6.066,3.93a3.342,3.342,0,0,1-3.351.611C7.418,4.39,0,0,0,0Z" transform="translate(425.73 274.075)" fill="none" stroke="#001e6c" stroke-linecap="round" stroke-linejoin="round" stroke-width="1"/>
          <path id="Caminho_228" data-name="Caminho 228" d="M3.018,0S7.645,4.665,6.731,4.831A4.187,4.187,0,0,1,3.67,4.445,43.5,43.5,0,0,1,0,.708Z" transform="translate(424.284 275.753)" fill="#fff"/>
          <path id="Caminho_229" data-name="Caminho 229" d="M3.018,0S7.645,4.665,6.731,4.831A4.187,4.187,0,0,1,3.67,4.445,43.5,43.5,0,0,1,0,.708Z" transform="translate(424.284 275.753)" fill="none" stroke="#001e6c" stroke-linecap="round" stroke-linejoin="round" stroke-width="1"/>
          <path id="Caminho_230" data-name="Caminho 230" d="M3.61,0S6.482,1.922,5.679,2.7s-3.158-.055-3.726-.581A11.39,11.39,0,0,0,0,.9Z" transform="translate(421.044 278.511)" fill="#fff"/>
          <path id="Caminho_231" data-name="Caminho 231" d="M3.61,0S6.482,1.922,5.679,2.7s-3.158-.055-3.726-.581A11.39,11.39,0,0,0,0,.9Z" transform="translate(421.044 278.511)" fill="none" stroke="#001e6c" stroke-linecap="round" stroke-linejoin="round" stroke-width="1"/>
          <path id="Caminho_232" data-name="Caminho 232" d="M15.4,0,56.96,32.934S54.6,38.075,52.486,39.4l-2.114,1.327s-21.636-5.006-30.259-8.381-17.181-7.7-17.181-7.7-4.043-5.386-2.635-8S15.4,0,15.4,0" transform="translate(350.183 243.822)" fill="#fff"/>
          <path id="Caminho_233" data-name="Caminho 233" d="M15.4,0,56.96,32.934S54.6,38.075,52.486,39.4l-2.114,1.327s-21.636-5.006-30.259-8.381-17.181-7.7-17.181-7.7-4.043-5.386-2.635-8S15.4,0,15.4,0Z" transform="translate(350.183 243.822)" fill="none" stroke="#001e6c" stroke-linecap="round" stroke-linejoin="round" stroke-width="1"/>
          <path id="Caminho_234" data-name="Caminho 234" d="M6.588,6.825S16.512.543,19.247.044,38.23,3.414,38.894,4.471s-.124,1.906-1.263,2.115S25.175,4.145,25.175,4.145,20,11.918,13.409,14.531,0,14.619,0,14.619s5.8-4.353,6.588-7.794" transform="translate(400.555 269.931)" fill="#fff"/>
          <path id="Caminho_235" data-name="Caminho 235" d="M6.588,6.825S16.512.543,19.247.044,38.23,3.414,38.894,4.471s-.124,1.906-1.263,2.115S25.175,4.145,25.175,4.145,20,11.918,13.409,14.531,0,14.619,0,14.619,5.8,10.266,6.588,6.825Z" transform="translate(400.555 269.931)" fill="none" stroke="#001e6c" stroke-linecap="round" stroke-linejoin="round" stroke-width="1"/>
          <path id="Caminho_236" data-name="Caminho 236" d="M6.546,9.3a54.609,54.609,0,0,0,6.963-3.151c2.112-1.327,5.738-3.4,7.313-5.1s2.838-1.224,3.171.6-.829,3.213-2.3,4.186-4.186,2.883-4.186,2.883-3.4,4.622-6.877,6.2S.891,15.751,0,14.736" transform="translate(407.146 269.79)" fill="#fff"/>
          <path id="Caminho_237" data-name="Caminho 237" d="M6.546,9.3a54.609,54.609,0,0,0,6.963-3.151c2.112-1.327,5.738-3.4,7.313-5.1s2.838-1.224,3.171.6-.829,3.213-2.3,4.186-4.186,2.883-4.186,2.883-3.4,4.622-6.877,6.2S.891,15.751,0,14.736" transform="translate(407.146 269.79)" fill="none" stroke="#001e6c" stroke-linecap="round" stroke-linejoin="round" stroke-width="1"/>
          <path id="Caminho_238" data-name="Caminho 238" d="M153.761,0s49.582,41.256,51.252,43.482,4.179,90.645,4.179,90.645l4.287,2.7a16.662,16.662,0,0,1,.307,3.422c-.138.975,10.384,6.649,17.036,10.18s7.682.5,6.654,3.533-12.829,4.236-16,4.181-9.573-.47-12.329.032-11.02,2.008-12.58.394-2.51-13.776-2.51-13.776-2.2-3.394-2.423-4.62a42.353,42.353,0,0,1-.558-6.539c.138-.975-15.556-74.973-15.556-74.973L112.191,32.244l-6.261,2.09s-17.82,53.22-18.487,56.5-51.2,70.572-51.2,70.572-6.85,10.447-7.434,12.45-5.759,3.9-5.759,3.9-7.149,20.363-8.121,23.7-4.368,5.54-8.291,6.572-8.1-11.491-6.129-16.279,12.35-19.014,12.35-19.014a27.34,27.34,0,0,1,.89-5.539c.639-1.7,4.506-6.515,4.506-6.515L50.257,81.165,58.44,6.3s58.34,14.673,95.32-6.3" transform="translate(213.362 304.305)" fill="#090d27"/>
          <path id="Caminho_239" data-name="Caminho 239" d="M153.761,0s49.582,41.256,51.252,43.482,4.179,90.645,4.179,90.645l4.287,2.7a16.662,16.662,0,0,1,.307,3.422c-.138.975,10.384,6.649,17.036,10.18s7.682.5,6.654,3.533-12.829,4.236-16,4.181-9.573-.47-12.329.032-11.02,2.008-12.58.394-2.51-13.776-2.51-13.776-2.2-3.394-2.423-4.62a42.353,42.353,0,0,1-.558-6.539c.138-.975-15.556-74.973-15.556-74.973L112.191,32.244l-6.261,2.09s-17.82,53.22-18.487,56.5-51.2,70.572-51.2,70.572-6.85,10.447-7.434,12.45-5.759,3.9-5.759,3.9-7.149,20.363-8.121,23.7-4.368,5.54-8.291,6.572-8.1-11.491-6.129-16.279,12.35-19.014,12.35-19.014a27.34,27.34,0,0,1,.89-5.539c.639-1.7,4.506-6.515,4.506-6.515L50.257,81.165,58.44,6.3S116.781,20.97,153.761,0Z" transform="translate(213.362 304.305)" fill="none" stroke="#001e6c" stroke-linecap="round" stroke-linejoin="round" stroke-width="1"/>
          <path id="Caminho_240" data-name="Caminho 240" d="M115.5,1.977S79.678,13.449,76.945,16.538s-45.677,50.477-56.053,67.2S0,128.055,0,128.055l11.937,3.476S31.615,105.1,37.477,99.8s45.16-44.259,45.16-44.259l3.2,20.141L50.684,119.292s6.552,12.7,26.7,19.863,39.687,7.136,57.132-3.108,26.665-17.81,26.665-17.81S150.789,98.7,147.636,89.148s-5.187-15.54-5.187-15.54S157.3,60.775,156.617,55.718s-1.187-15.563-1.083-16.288,7.08-18.011,5.336-24.993-5.328-9.863-10.7-12.181S137.988,0,137.988,0Z" transform="translate(211.244 187.688)" fill="#fff"/>
          <path id="Caminho_241" data-name="Caminho 241" d="M115.5,1.977S79.678,13.449,76.945,16.538s-45.677,50.477-56.053,67.2S0,128.055,0,128.055l11.937,3.476S31.615,105.1,37.477,99.8s45.16-44.259,45.16-44.259l3.2,20.141L50.684,119.292s6.552,12.7,26.7,19.863,39.687,7.136,57.132-3.108,26.665-17.81,26.665-17.81S150.789,98.7,147.636,89.148s-5.187-15.54-5.187-15.54S157.3,60.775,156.617,55.718s-1.187-15.563-1.083-16.288,7.08-18.011,5.336-24.993-5.328-9.863-10.7-12.181S137.988,0,137.988,0Z" transform="translate(211.244 187.688)" fill="none" stroke="#001e6c" stroke-linecap="round" stroke-linejoin="round" stroke-width="1"/>
          <line id="Linha_33" data-name="Linha 33" x1="34.9" y2="8.903" transform="translate(305.047 263.154)" fill="none" stroke="#001e6c" stroke-linecap="round" stroke-linejoin="round" stroke-width="1"/>
          <line id="Linha_34" data-name="Linha 34" x1="4.749" y2="1.211" transform="translate(345.731 260.467)" fill="none" stroke="#001e6c" stroke-linecap="round" stroke-linejoin="round" stroke-width="1"/>
          <line id="Linha_35" data-name="Linha 35" x1="30.759" y2="7.91" transform="translate(295.819 271.178)" fill="none" stroke="#001e6c" stroke-linecap="round" stroke-linejoin="round" stroke-width="1"/>
          <path id="Caminho_242" data-name="Caminho 242" d="M12.514,3.576a24.232,24.232,0,0,0-6.4,4.934C3.378,11.6-1.606,39.825.509,46.27s3.711,6.153,6.778,4.887S23.7,40.4,23.7,40.4s16.686,7.558,20.7,6.354-.089-18.589-3.6-28.783S37.547,6.55,30.314,1.746s-17.8,1.829-17.8,1.829" transform="translate(318.274 181.116)" fill="#2943f9"/>
          <path id="Caminho_243" data-name="Caminho 243" d="M27.516.421S34.874,5.91,38.027,12.872s3.3,9.054,7.547,10.4,7.77,0,7.73,2.36-5.716,7.4-5.716,7.4,2.1,15.4,2.284,17.717S33.3,55.417,33.3,55.417,21.184,85.884,19.82,93.9a27.784,27.784,0,0,1-6.087,13.121L1.9,65.375,3.287,48.4A48.079,48.079,0,0,1,.238,40.716C-1.4,35.6,5.829,27.451,9.35,23.513S19.044,9.5,21.549,3.864,27.516.421,27.516.421" transform="translate(327.061 124.828)" fill="#fff"/>
          <path id="Caminho_244" data-name="Caminho 244" d="M27.516.421S34.874,5.91,38.027,12.872s3.3,9.054,7.547,10.4,7.77,0,7.73,2.36-5.716,7.4-5.716,7.4,2.1,15.4,2.284,17.717S33.3,55.417,33.3,55.417,21.184,85.884,19.82,93.9a27.784,27.784,0,0,1-6.087,13.121L1.9,65.375,3.287,48.4A48.079,48.079,0,0,1,.238,40.716C-1.4,35.6,5.829,27.451,9.35,23.513S19.044,9.5,21.549,3.864,27.516.421,27.516.421Z" transform="translate(327.061 124.828)" fill="none" stroke="#001e6c" stroke-linecap="round" stroke-linejoin="round" stroke-width="1"/>
          <path id="Caminho_245" data-name="Caminho 245" d="M7.772,0,0,.808,4.033,7.666Z" transform="translate(352.586 180.246)" fill="#001e6c"/>
          <path id="Caminho_246" data-name="Caminho 246" d="M7.772,0,0,.808,4.033,7.666Z" transform="translate(352.586 180.246)" fill="none" stroke="#001e6c" stroke-linecap="round" stroke-linejoin="round" stroke-width="1"/>
          <path id="Caminho_247" data-name="Caminho 247" d="M3.289,2.646c.486,1.686.2,3.248-.647,3.491S.721,5.212.236,3.523.039.274.884.032,2.8.958,3.289,2.646" transform="translate(362.47 143.956)" fill="#1a004f"/>
          <path id="Caminho_248" data-name="Caminho 248" d="M0,2.245S1.594-.636,3.854.129" transform="translate(359.784 139.954)" fill="none" stroke="#001e6c" stroke-linecap="round" stroke-linejoin="round" stroke-width="1"/>
          <path id="Caminho_249" data-name="Caminho 249" d="M0,0S2.116,3.854,6.218,3.106" transform="translate(364.991 159.148)" fill="none" stroke="#001e6c" stroke-linecap="round" stroke-linejoin="round" stroke-width="1"/>
          <path id="Caminho_250" data-name="Caminho 250" d="M41.579,50.766s5.822-2.944,6.112-6.53-6.718-8.431-3.2-12.371S55.35,24.237,55.139,12.734,39.468-.895,31.676.289,7.31,8.732,2.735,21.1-.2,43.776,4.174,50.987A27.5,27.5,0,0,0,21.191,62.959c4.891.993,9.617,3.665,12.456,2.44s2.836-6.4,2.835-8.994,5.1-5.639,5.1-5.639" transform="translate(300.971 110.586)" fill="#090d27"/>
          <path id="Caminho_251" data-name="Caminho 251" d="M41.579,50.766s5.822-2.944,6.112-6.53-6.718-8.431-3.2-12.371S55.35,24.237,55.139,12.734,39.468-.895,31.676.289,7.31,8.732,2.735,21.1-.2,43.776,4.174,50.987A27.5,27.5,0,0,0,21.191,62.959c4.891.993,9.617,3.665,12.456,2.44s2.836-6.4,2.835-8.994S41.579,50.766,41.579,50.766Z" transform="translate(300.971 110.586)" fill="none" stroke="#001e6c" stroke-linecap="round" stroke-linejoin="round" stroke-width="1"/>
          <path id="Caminho_252" data-name="Caminho 252" d="M14.034,6.042S5.577-1.6,2.863.305a6.907,6.907,0,0,0-.37,10.9,7.436,7.436,0,0,0,10.922-.812" transform="translate(332.516 157.879)" fill="#fff"/>
          <path id="Caminho_253" data-name="Caminho 253" d="M14.034,6.042S5.577-1.6,2.863.305a6.907,6.907,0,0,0-.37,10.9,7.436,7.436,0,0,0,10.922-.812" transform="translate(332.516 157.879)" fill="none" stroke="#001e6c" stroke-linecap="round" stroke-linejoin="round" stroke-width="1"/>
          <path id="Caminho_254" data-name="Caminho 254" d="M58.934,11.167S53.6-1.286,36.9.109,18.153,14.829,19.875,20.4,25.1,33.58,21.228,34.286,9.146,33.9,2.558,41.691s.753,19.646,8.4,21.549,6.2,1.7,6.2,1.7-9.678-.121-7.81,7.547,17.907,7.806,24,5.047S32.18,65.969,32.18,65.969s11.79-1.207,15.769-5.228-.893-6.2,4.266-7.606,10.486.679,11.623-4.709-1.409-2.569-2.283-9.947-6.385-9.2-2.621-27.311" transform="translate(243.59 123.094)" fill="#001e6c"/>
          <path id="Caminho_255" data-name="Caminho 255" d="M58.934,11.167S53.6-1.286,36.9.109,18.153,14.829,19.875,20.4,25.1,33.58,21.228,34.286,9.146,33.9,2.558,41.691s.753,19.646,8.4,21.549,6.2,1.7,6.2,1.7-9.678-.121-7.81,7.547,17.907,7.806,24,5.047S32.18,65.969,32.18,65.969s11.79-1.207,15.769-5.228-.893-6.2,4.266-7.606,10.486.679,11.623-4.709-1.409-2.569-2.283-9.947S55.17,29.28,58.934,11.167Z" transform="translate(243.59 123.094)" fill="none" stroke="#001e6c" stroke-linecap="round" stroke-linejoin="round" stroke-width="1"/>
          <line id="Linha_36" data-name="Linha 36" y1="10.18" x2="13.217" transform="translate(293.88 233.045)" fill="#fff"/>
          <line id="Linha_37" data-name="Linha 37" y1="10.18" x2="13.217" transform="translate(293.88 233.045)" fill="none" stroke="#001e6c" stroke-linecap="round" stroke-linejoin="round" stroke-width="1"/>
          <path id="Caminho_256" data-name="Caminho 256" d="M26.153,3.476s-.293,9.163.064,11.126a36.417,36.417,0,0,0,3.374,8.623c1.308,2.239,4.561,5.251,3.234,6.62s-3.906-.415-4.8-1.6a60.979,60.979,0,0,1-3.034-5.531L23.829,42.3l-2.28,1.091a4.6,4.6,0,0,1-1.171-2.716c-.059-1.567-1.372-13.718-1.372-13.718s-4.136,18.1-4.672,18.874-3.132.121-3.113-1.01,1.461-16.711,1.461-16.711S7.989,43.156,7.672,43.889s-2.457,1.348-3.092.338.634-3.945.634-3.945L8.639,28.169,1.664,39.351S-.3,39.71.039,37.845,5.922,24.383,5.922,24.383s.116-6.781.75-8.248S14.215,0,14.215,0Z" transform="translate(197.027 315.745)" fill="#fff"/>
          <path id="Caminho_257" data-name="Caminho 257" d="M26.153,3.476s-.293,9.163.064,11.126a36.417,36.417,0,0,0,3.374,8.623c1.308,2.239,4.561,5.251,3.234,6.62s-3.906-.415-4.8-1.6a60.979,60.979,0,0,1-3.034-5.531L23.829,42.3l-2.28,1.091a4.6,4.6,0,0,1-1.171-2.716c-.059-1.567-1.372-13.718-1.372-13.718s-4.136,18.1-4.672,18.874-3.132.121-3.113-1.01,1.461-16.711,1.461-16.711S7.989,43.156,7.672,43.889s-2.457,1.348-3.092.338.634-3.945.634-3.945L8.639,28.169,1.664,39.351S-.3,39.71.039,37.845,5.922,24.383,5.922,24.383s.116-6.781.75-8.248S14.215,0,14.215,0Z" transform="translate(197.027 315.745)" fill="none" stroke="#001e6c" stroke-linecap="round" stroke-linejoin="round" stroke-width="1"/>
        </g>
      </g>
    </g>
  </g>
</svg>
