<svg id="Grupo_174" data-name="Grupo 174" xmlns="http://www.w3.org/2000/svg" xmlns:xlink="http://www.w3.org/1999/xlink" width="126.826" height="92.493" viewBox="0 0 126.826 92.493">
  <defs>
    <clipPath id="clip-path">
      <rect id="Retângulo_69" data-name="Retângulo 69" width="126.826" height="92.493" fill="#fff"/>
    </clipPath>
  </defs>
  <g id="Grupo_173" data-name="Grupo 173" transform="translate(0 0)" clip-path="url(#clip-path)">
    <path id="Caminho_639" data-name="Caminho 639" d="M30.9,14.994,2.006,38.351a2.488,2.488,0,0,0-.926,1.938v27.1a2.483,2.483,0,0,0,2.482,2.487h28.9a2.486,2.486,0,0,0,2.482-2.487V16.932A2.484,2.484,0,0,0,30.9,14.994m-.921,49.9H6.043V41.48L29.975,22.134Z" transform="translate(1.692 22.621)" fill="#fff"/>
    <path id="Caminho_640" data-name="Caminho 640" d="M26.048,8.994l-7.455,4.671a2.493,2.493,0,0,0-1.168,2.112V76.511A2.485,2.485,0,0,0,19.909,79H48.8a2.483,2.483,0,0,0,2.482-2.487V33.529a2.494,2.494,0,0,0-.688-1.722L29.159,9.385a2.481,2.481,0,0,0-3.11-.39M46.32,74.022H22.391V17.156l4.578-2.869L46.32,34.528Z" transform="translate(27.295 13.497)" fill="#fff"/>
    <path id="Caminho_641" data-name="Caminho 641" d="M53.306,11.212,34.363,30.2a1.737,1.737,0,0,0-.508,1.234V73.994a1.736,1.736,0,0,0,1.737,1.74H54.535a1.74,1.74,0,0,0,1.74-1.74V12.444a1.738,1.738,0,0,0-2.969-1.232M52.8,72.248H37.332V32.154L52.8,16.652Z" transform="translate(53.031 16.759)" fill="#fff"/>
    <path id="Caminho_642" data-name="Caminho 642" d="M122.624.556,81.638,30.763Q69.712,18.248,57.788,5.73a2.939,2.939,0,0,0-3.539-.457Q27.776,23.736,1.3,42.2c-3.064,2.135-.149,7.209,2.946,5.051Q29.792,29.437,55.335,11.623,67.28,24.165,79.226,36.7a2.937,2.937,0,0,0,3.536.457q21.4-15.776,42.808-31.549c2.995-2.21.087-7.289-2.946-5.053" transform="translate(-0.001 0)" fill="#fff"/>
  </g>
</svg>
