<svg xmlns="http://www.w3.org/2000/svg" xmlns:xlink="http://www.w3.org/1999/xlink" width="164.944" height="109.708" viewBox="0 0 164.944 109.708">
  <defs>
    <clipPath id="clip-path">
      <rect id="Retângulo_66" data-name="Retângulo 66" width="164.944" height="109.708" fill="#fff"/>
    </clipPath>
  </defs>
  <g id="Grupo_168" data-name="Grupo 168" transform="translate(0 0)">
    <g id="Grupo_167" data-name="Grupo 167" transform="translate(0 0.001)" clip-path="url(#clip-path)">
      <path id="Caminho_632" data-name="Caminho 632" d="M164.931,54.874c.034-.98.623-24.185-13.888-37.514a2.855,2.855,0,0,0-3.669-.158c-.168.128-17.049,12.844-32.76.013a2.845,2.845,0,0,0-3.673.061,42.862,42.862,0,0,0-8.962,12.362,2.865,2.865,0,0,0-2.871.344c-.691.529-17.13,12.783-32.763.02a2.844,2.844,0,0,0-2.662-.5,38.155,38.155,0,0,0-8.669-12.143,2.85,2.85,0,0,0-3.666-.158c-.168.128-17.049,12.844-32.76.013a2.849,2.849,0,0,0-3.676.061C14.32,17.8.351,30.241,0,54.753a2.859,2.859,0,0,0,2.854,2.9l45.859-.01a61.155,61.155,0,0,0-.957,9.892,2.853,2.853,0,0,0,2.854,2.9l63.2-.013a2.862,2.862,0,0,0,2.854-2.766,59.382,59.382,0,0,0-.731-10.01l46.149-.01a2.854,2.854,0,0,0,2.85-2.766M50.017,51.923l-44.2.01C6.83,36.539,13.868,26.886,17.079,23.24c14.933,10.445,30.172,3.191,35.637-.108a34.61,34.61,0,0,1,6.553,10.61,51.639,51.639,0,0,0-9.252,18.181m3.561,12.793c1.007-15.394,8.046-25.047,11.257-28.693,14.933,10.445,30.172,3.194,35.637-.108,8.494,9.138,10.121,22.948,10.421,28.791ZM114.8,51.929a46.487,46.487,0,0,0-8.487-17.992,44.2,44.2,0,0,1,6.8-10.7c14.936,10.445,30.172,3.191,35.64-.108,8.491,9.138,10.118,22.945,10.418,28.787Z" transform="translate(0 39.266)" fill="#fff"/>
      <path id="Caminho_633" data-name="Caminho 633" d="M125.256,0A27.035,27.035,0,0,0,98.49,23.542a26.9,26.9,0,0,0-40.61-2.81,28.49,28.49,0,0,0-1.974,2.224A27.015,27.015,0,1,0,29.231,54.179h.007a26.781,26.781,0,0,0,19.1-7.948A27.4,27.4,0,0,0,50.313,44,27.063,27.063,0,0,0,76.988,66.962h.007A27.028,27.028,0,0,0,103.75,43.424a26.954,26.954,0,0,0,21.506,10.755h.007a27.091,27.091,0,0,0,27.018-27.1A27.1,27.1,0,0,0,125.256,0M44.3,42.188a21.121,21.121,0,0,1-15.057,6.264h-.007A21.363,21.363,0,0,1,14.164,11.992,21.139,21.139,0,0,1,29.231,5.725,21.361,21.361,0,0,1,44.3,42.188M92.048,54.971a21.122,21.122,0,0,1-15.054,6.267h-.007A21.361,21.361,0,0,1,61.92,24.779a21.137,21.137,0,0,1,15.067-6.27A21.361,21.361,0,0,1,92.048,54.971M140.32,42.188a21.121,21.121,0,0,1-15.057,6.264h-.007a21.363,21.363,0,0,1-15.067-36.459,21.139,21.139,0,0,1,15.067-6.267A21.361,21.361,0,0,1,140.32,42.188" transform="translate(5.227 0.001)" fill="#fff"/>
    </g>
  </g>
</svg>
