<svg xmlns="http://www.w3.org/2000/svg" xmlns:xlink="http://www.w3.org/1999/xlink" width="146.453" height="125.802" viewBox="0 0 146.453 125.802">
  <defs>
    <clipPath id="clip-path">
      <rect id="Retângulo_67" data-name="Retângulo 67" width="146.453" height="125.802" fill="#fff"/>
    </clipPath>
  </defs>
  <g id="Grupo_170" data-name="Grupo 170" transform="translate(0 0)">
    <g id="Grupo_169" data-name="Grupo 169" transform="translate(0 0)" clip-path="url(#clip-path)">
      <path id="Caminho_634" data-name="Caminho 634" d="M31.451,41.818a2.712,2.712,0,0,0-3.169,2.153L26,55.94a2.706,2.706,0,0,0,2.153,3.166l4.619.882a31.827,31.827,0,0,0,1.545,7.427l-3.892,2.648a2.7,2.7,0,0,0-.718,3.761L36.548,83.9a2.71,2.71,0,0,0,3.763.716l3.895-2.645a32.067,32.067,0,0,0,6.34,4.171l-.882,4.619a2.708,2.708,0,0,0,2.153,3.166l11.964,2.284a2.859,2.859,0,0,0,.511.047,2.707,2.707,0,0,0,2.658-2.2l.882-4.619a31.984,31.984,0,0,0,7.429-1.545l2.648,3.895a2.707,2.707,0,0,0,3.761.716l10.074-6.842a2.712,2.712,0,0,0,.718-3.766L89.814,78a31.868,31.868,0,0,0,4.174-6.337l4.619.882a2.713,2.713,0,0,0,3.169-2.153l2.282-11.966a2.707,2.707,0,0,0-2.155-3.166l-4.616-.882a32.12,32.12,0,0,0-1.545-7.429L99.636,44.3a2.708,2.708,0,0,0,.718-3.761L93.507,30.465a2.711,2.711,0,0,0-3.761-.718l-3.895,2.648a32.066,32.066,0,0,0-6.34-4.171l.882-4.619a2.712,2.712,0,0,0-2.153-3.169L66.274,18.153a2.7,2.7,0,0,0-3.166,2.153l-.884,4.619A32.07,32.07,0,0,0,54.8,26.47l-2.648-3.895a2.713,2.713,0,0,0-3.763-.718L38.312,28.7a2.709,2.709,0,0,0-.716,3.763l2.645,3.892a31.95,31.95,0,0,0-4.171,6.34Zm8.7,4.982a26.707,26.707,0,0,1,5.474-8.324,2.7,2.7,0,0,0,.292-3.4L43.6,31.662l5.6-3.8,2.319,3.411a2.717,2.717,0,0,0,3.274.982,26.63,26.63,0,0,1,9.751-2.026,2.716,2.716,0,0,0,2.616-2.2l.771-4.042,6.642,1.266-.771,4.045A2.706,2.706,0,0,0,75.414,32.3a26.73,26.73,0,0,1,8.319,5.474,2.713,2.713,0,0,0,3.405.295l3.411-2.319,3.8,5.592-3.411,2.319a2.7,2.7,0,0,0-.984,3.271,26.7,26.7,0,0,1,2.026,9.753,2.711,2.711,0,0,0,2.2,2.613l4.045.774L96.96,66.717l-4.042-.771a2.7,2.7,0,0,0-3.008,1.621,26.688,26.688,0,0,1-5.477,8.322,2.708,2.708,0,0,0-.292,3.4L86.459,82.7l-5.592,3.8-2.319-3.413a2.713,2.713,0,0,0-3.271-.982,26.778,26.778,0,0,1-9.753,2.029,2.7,2.7,0,0,0-2.613,2.2l-.774,4.048-6.642-1.268.771-4.045a2.711,2.711,0,0,0-1.621-3.011,26.664,26.664,0,0,1-8.322-5.474,2.712,2.712,0,0,0-3.4-.292l-3.413,2.321-3.8-5.6L39.117,70.7A2.707,2.707,0,0,0,40.1,67.43a26.667,26.667,0,0,1-2.026-9.753,2.706,2.706,0,0,0-2.2-2.613l-4.048-.771L33.1,47.647l4.045.771A2.709,2.709,0,0,0,40.148,46.8" transform="translate(42.346 29.542)" fill="#fff"/>
      <path id="Caminho_635" data-name="Caminho 635" d="M49.222,64.147h0a19.467,19.467,0,1,0-12.448-8.179,19.336,19.336,0,0,0,12.448,8.179M39.074,42.393A14.056,14.056,0,0,1,52.84,30.974a14.28,14.28,0,0,1,2.663.253,14.048,14.048,0,1,1-5.263,27.6h0A14.047,14.047,0,0,1,39.074,42.393" transform="translate(54.503 41.7)" fill="#fff"/>
      <path id="Caminho_636" data-name="Caminho 636" d="M1.76,50.584a2.7,2.7,0,0,0,3.066,2.295l4.653-.668a31.923,31.923,0,0,0,3.877,6.524L10.531,62.5a2.714,2.714,0,0,0,.545,3.792l9.751,7.3a2.711,2.711,0,0,0,3.792-.542l2.821-3.771a31.957,31.957,0,0,0,7.353,1.884l.666,4.653a2.707,2.707,0,0,0,2.682,2.324,2.667,2.667,0,0,0,.384-.026l12.059-1.732a2.708,2.708,0,0,0,2.295-3.066l-.668-4.653a32.042,32.042,0,0,0,6.524-3.877L62.5,67.611a2.71,2.71,0,0,0,3.792-.542l7.3-9.751a2.708,2.708,0,0,0-.542-3.79L69.285,50.7a32.065,32.065,0,0,0,1.882-7.35l4.656-.668a2.71,2.71,0,0,0,2.295-3.066L76.385,27.564a2.709,2.709,0,0,0-3.066-2.3l-4.653.666a32.046,32.046,0,0,0-3.877-6.521l2.824-3.769a2.709,2.709,0,0,0-.545-3.792l-9.748-7.3a2.718,2.718,0,0,0-3.795.545L50.7,8.863a31.97,31.97,0,0,0-7.35-1.884l-.668-4.656A2.707,2.707,0,0,0,39.62.028L27.564,1.757a2.714,2.714,0,0,0-2.3,3.066l.668,4.656a31.994,31.994,0,0,0-6.524,3.877l-3.769-2.824a2.715,2.715,0,0,0-3.792.545l-7.3,9.751a2.708,2.708,0,0,0,.542,3.79L8.863,27.44a31.97,31.97,0,0,0-1.884,7.35l-4.656.668A2.71,2.71,0,0,0,.028,38.528Zm16.1-31.62a2.712,2.712,0,0,0,3.416-.137,26.63,26.63,0,0,1,8.564-5.085A2.705,2.705,0,0,0,31.6,10.81l-.584-4.074,6.7-.963.584,4.077A2.709,2.709,0,0,0,40.8,12.168a26.719,26.719,0,0,1,9.648,2.471,2.71,2.71,0,0,0,3.316-.829l2.471-3.3,5.416,4.055-2.474,3.3a2.7,2.7,0,0,0,.134,3.413A26.725,26.725,0,0,1,64.4,29.843,2.711,2.711,0,0,0,67.335,31.6l4.077-.584.961,6.7-4.077.584A2.709,2.709,0,0,0,65.977,40.8a26.693,26.693,0,0,1-2.471,9.651,2.712,2.712,0,0,0,.829,3.313l3.3,2.471-4.053,5.413-3.3-2.471a2.709,2.709,0,0,0-3.416.134A26.685,26.685,0,0,1,48.3,64.4a2.71,2.71,0,0,0-1.755,2.929l.587,4.077-6.7.963L39.852,68.3a2.714,2.714,0,0,0-2.511-2.319,26.746,26.746,0,0,1-9.651-2.471,2.663,2.663,0,0,0-1.142-.255,2.713,2.713,0,0,0-2.171,1.084l-2.471,3.3-5.413-4.056,2.471-3.3a2.709,2.709,0,0,0-.134-3.413A26.694,26.694,0,0,1,13.742,48.3a2.709,2.709,0,0,0-2.932-1.755l-4.077.584-.961-6.7,4.077-.587a2.706,2.706,0,0,0,2.319-2.508A26.693,26.693,0,0,1,14.64,27.69a2.7,2.7,0,0,0-.829-3.311l-3.3-2.474,4.055-5.413Z" transform="translate(0.001 0.002)" fill="#fff"/>
      <path id="Caminho_637" data-name="Caminho 637" d="M26.9,46.382a19.906,19.906,0,0,0,2.779-.2,19.465,19.465,0,1,0-2.779.2M40.823,24.92a14.011,14.011,0,1,1-13.9-12.056,14.061,14.061,0,0,1,13.9,12.056" transform="translate(12.157 12.156)" fill="#fff"/>
    </g>
  </g>
</svg>
