<svg id="Grupo_11" data-name="Grupo 11" xmlns="http://www.w3.org/2000/svg" xmlns:xlink="http://www.w3.org/1999/xlink" width="763.894" height="458" viewBox="0 0 763.894 458">
  <defs>
    <clipPath id="clip-path">
      <rect id="Retângulo_17" data-name="Retângulo 17" width="763.894" height="458" fill="none"/>
    </clipPath>
  </defs>
  <g id="Grupo_10" data-name="Grupo 10" clip-path="url(#clip-path)">
    <path id="Caminho_10" data-name="Caminho 10" d="M75.4,160.04c20.716-11.627,43.282-20.831,63.649-31.548C174.007,110.1,208.46,90.607,241.676,69.218c44.43-28.61,89.111-50.921,141.707-59.94C441.918-.76,503.342,3.989,559.309,24.059q.767.273,1.532.553c44.391,16.174,85.152,43.609,113.869,81.449C708.118,150.08,723.392,204,721.464,258.89c-.493,14.021-1.718,28.01-3.325,41.944C701.218,447.469,510.4,461.568,431.448,456.869s-237.009-54.132-279.169-48.878c-45.664,5.689-96-10.426-126.129-46.112C-9.82,319.273-6.12,253.9,21.676,208.019,34.662,186.581,54.049,172.024,75.4,160.04" transform="translate(0 0.398)" fill="#e1edfa"/>
    <rect id="Retângulo_5" data-name="Retângulo 5" width="119.071" height="145.209" transform="translate(545.464 24.748)" fill="none" stroke="#001e6c" stroke-linecap="round" stroke-linejoin="round" stroke-width="1"/>
    <rect id="Retângulo_6" data-name="Retângulo 6" width="103.514" height="126.237" transform="translate(553.242 34.234)" fill="none" stroke="#001e6c" stroke-linecap="round" stroke-linejoin="round" stroke-width="1"/>
    <rect id="Retângulo_7" data-name="Retângulo 7" width="36.702" height="44.759" transform="translate(586.647 74.974)" fill="none" stroke="#001e6c" stroke-linecap="round" stroke-linejoin="round" stroke-width="1"/>
    <line id="Linha_3" data-name="Linha 3" y1="185.297" transform="translate(264.531 7.514)" fill="none" stroke="#001e6c" stroke-linecap="round" stroke-linejoin="round" stroke-width="1"/>
    <path id="Caminho_11" data-name="Caminho 11" d="M19.427,277.631h243.26V183.673" transform="translate(1.844 17.437)" fill="none" stroke="#001e6c" stroke-linecap="round" stroke-linejoin="round" stroke-width="1"/>
    <line id="Linha_4" data-name="Linha 4" y1="135.105" transform="translate(518.083 8.396)" fill="none" stroke="#001e6c" stroke-linecap="round" stroke-linejoin="round" stroke-width="1"/>
    <path id="Caminho_12" data-name="Caminho 12" d="M250.994,14.236v279.48h243.26V148.5" transform="translate(23.829 1.352)" fill="none" stroke="#001e6c" stroke-linecap="round" stroke-linejoin="round" stroke-width="1"/>
    <line id="Linha_5" data-name="Linha 5" y2="3.191" transform="translate(274.823 7.514)" fill="none" stroke="#001e6c" stroke-linecap="round" stroke-linejoin="round" stroke-width="1"/>
    <rect id="Retângulo_8" data-name="Retângulo 8" width="17.738" height="20.026" transform="translate(106.994 412.644)" fill="#fff"/>
    <rect id="Retângulo_9" data-name="Retângulo 9" width="17.738" height="20.026" transform="translate(106.994 412.644)" fill="none" stroke="#001e6c" stroke-linecap="round" stroke-linejoin="round" stroke-width="1"/>
    <rect id="Retângulo_10" data-name="Retângulo 10" width="130.899" height="88.28" transform="translate(50.413 326.405)" fill="#fff"/>
    <rect id="Retângulo_11" data-name="Retângulo 11" width="130.899" height="88.28" transform="translate(50.413 326.405)" fill="none" stroke="#001e6c" stroke-linecap="round" stroke-linejoin="round" stroke-width="1"/>
    <rect id="Retângulo_12" data-name="Retângulo 12" width="122.965" height="80.661" transform="translate(54.38 330.215)" fill="#9ebedf"/>
    <rect id="Retângulo_13" data-name="Retângulo 13" width="122.965" height="80.661" transform="translate(54.38 330.215)" fill="none" stroke="#001e6c" stroke-linecap="round" stroke-linejoin="round" stroke-width="1"/>
    <path id="Caminho_13" data-name="Caminho 13" d="M339.243,291.489H263.39a15.093,15.093,0,0,0-14.772,12l-21.23,101.358H334.081l19.934-95.17a15.093,15.093,0,0,0-14.772-18.186" transform="translate(21.587 27.673)" fill="#001e6c"/>
    <path id="Caminho_14" data-name="Caminho 14" d="M339.243,291.489H263.39a15.093,15.093,0,0,0-14.772,12l-21.23,101.358H334.081l19.934-95.17A15.093,15.093,0,0,0,339.243,291.489Z" transform="translate(21.587 27.673)" fill="none" stroke="#001e6c" stroke-linecap="round" stroke-linejoin="round" stroke-width="1"/>
    <path id="Caminho_15" data-name="Caminho 15" d="M544.008,197.891s-4.885,13.433-15.263,15.263-28.7-18.316-17.1-28.7,27.475,6.106,32.36,13.433" transform="translate(48.221 17.195)" fill="#9ebedf"/>
    <path id="Caminho_16" data-name="Caminho 16" d="M544.008,197.891s-4.885,13.433-15.263,15.263-28.7-18.316-17.1-28.7S539.124,190.565,544.008,197.891Z" transform="translate(48.221 17.195)" fill="none" stroke="#001e6c" stroke-linecap="round" stroke-linejoin="round" stroke-width="1"/>
    <path id="Caminho_17" data-name="Caminho 17" d="M556.3,136.713s-15.264,37.244-9.158,55.56,43.96,31.749,54.949,7.937-13.431-57.392-22.59-64.718-20.149-4.885-23.2,1.221" transform="translate(51.807 12.434)" fill="#9ebedf"/>
    <path id="Caminho_18" data-name="Caminho 18" d="M556.3,136.713s-15.264,37.244-9.158,55.56,43.96,31.749,54.949,7.937-13.431-57.392-22.59-64.718S559.35,130.607,556.3,136.713Z" transform="translate(51.807 12.434)" fill="none" stroke="#001e6c" stroke-linecap="round" stroke-linejoin="round" stroke-width="1"/>
    <path id="Caminho_19" data-name="Caminho 19" d="M639.361,151.171s-26.254,23.812-29.307,47.623,14.654,32.36,32.971,29.307S670.5,178.646,665,157.276s-25.643-6.105-25.643-6.105" transform="translate(57.884 13.85)" fill="#9ebedf"/>
    <path id="Caminho_20" data-name="Caminho 20" d="M639.361,151.171s-26.254,23.812-29.307,47.623,14.654,32.36,32.971,29.307S670.5,178.646,665,157.276,639.361,151.171,639.361,151.171Z" transform="translate(57.884 13.85)" fill="none" stroke="#001e6c" stroke-linecap="round" stroke-linejoin="round" stroke-width="1"/>
    <path id="Caminho_21" data-name="Caminho 21" d="M643.905,271.158s-29.307,1.221-30.528,15.264,12.822,17.1,26.864,4.883,15.874-19.538,3.664-20.148" transform="translate(58.225 25.743)" fill="#9ebedf"/>
    <path id="Caminho_22" data-name="Caminho 22" d="M643.905,271.158s-29.307,1.221-30.528,15.264,12.822,17.1,26.864,4.883S656.116,271.768,643.905,271.158Z" transform="translate(58.225 25.743)" fill="none" stroke="#001e6c" stroke-linecap="round" stroke-linejoin="round" stroke-width="1"/>
    <path id="Caminho_23" data-name="Caminho 23" d="M613.813,289.23s23.1-10.567,33.5-12.4" transform="translate(58.273 26.281)" fill="none" stroke="#001e6c" stroke-linecap="round" stroke-linejoin="round" stroke-width="1"/>
    <path id="Caminho_24" data-name="Caminho 24" d="M650.451,356.226S628.924,336.3,618.1,345.336s-3.086,21.145,15.475,22.5,25.049-2.515,16.873-11.606" transform="translate(58.211 32.562)" fill="#9ebedf"/>
    <path id="Caminho_25" data-name="Caminho 25" d="M650.451,356.226S628.924,336.3,618.1,345.336s-3.086,21.145,15.475,22.5S658.627,365.317,650.451,356.226Z" transform="translate(58.211 32.562)" fill="none" stroke="#001e6c" stroke-linecap="round" stroke-linejoin="round" stroke-width="1"/>
    <path id="Caminho_26" data-name="Caminho 26" d="M615.82,347.6s23.777,8.931,32.411,15.014" transform="translate(58.464 33)" fill="none" stroke="#001e6c" stroke-linecap="round" stroke-linejoin="round" stroke-width="1"/>
    <path id="Caminho_27" data-name="Caminho 27" d="M543.927,351.3s29.675-27.464,44.59-15.012,4.254,29.148-21.332,31.011-34.529-3.468-23.259-16" transform="translate(51.184 31.619)" fill="#9ebedf"/>
    <path id="Caminho_28" data-name="Caminho 28" d="M543.927,351.3s29.675-27.464,44.59-15.012,4.254,29.148-21.332,31.011S532.656,363.833,543.927,351.3Z" transform="translate(51.184 31.619)" fill="none" stroke="#001e6c" stroke-linecap="round" stroke-linejoin="round" stroke-width="1"/>
    <path id="Caminho_29" data-name="Caminho 29" d="M590.666,339.413s-32.777,12.311-44.679,20.7" transform="translate(51.834 32.223)" fill="none" stroke="#001e6c" stroke-linecap="round" stroke-linejoin="round" stroke-width="1"/>
    <path id="Caminho_30" data-name="Caminho 30" d="M578.115,298.985s-3.053,14.653-14.042,20.148-30.528-6.105-20.149-23.812,28.7-3.664,34.192,3.664" transform="translate(51.359 27.223)" fill="#9ebedf"/>
    <path id="Caminho_31" data-name="Caminho 31" d="M578.115,298.985s-3.053,14.653-14.042,20.148-30.528-6.105-20.149-23.812S572.621,291.658,578.115,298.985Z" transform="translate(51.359 27.223)" fill="none" stroke="#001e6c" stroke-linecap="round" stroke-linejoin="round" stroke-width="1"/>
    <path id="Caminho_32" data-name="Caminho 32" d="M555.793,256.706s-5.5-12.211-26.864-4.274-29.918,20.148-16.485,24.421,43.35-20.148,43.35-20.148" transform="translate(48.038 23.71)" fill="#9ebedf"/>
    <path id="Caminho_33" data-name="Caminho 33" d="M555.793,256.706s-5.5-12.211-26.864-4.274-29.918,20.148-16.485,24.421S555.793,256.706,555.793,256.706Z" transform="translate(48.038 23.71)" fill="none" stroke="#001e6c" stroke-linecap="round" stroke-linejoin="round" stroke-width="1"/>
    <path id="Caminho_34" data-name="Caminho 34" d="M550.762,255.594s-22.638,2.447-34.875,12.849" transform="translate(48.977 24.265)" fill="none" stroke="#001e6c" stroke-linecap="round" stroke-linejoin="round" stroke-width="1"/>
    <path id="Caminho_35" data-name="Caminho 35" d="M607.237,123.545s3.664,8.548,10.99,6.716,9.158-12.822,20.759-9.769,21.37,16.484,21.37,10.379-14.654-21.98-31.139-21.98-21.37,6.716-21.98,14.654" transform="translate(57.649 10.338)" fill="#9ebedf"/>
    <path id="Caminho_36" data-name="Caminho 36" d="M607.237,123.545s3.664,8.548,10.99,6.716,9.158-12.822,20.759-9.769,21.37,16.484,21.37,10.379-14.654-21.98-31.139-21.98S607.847,115.607,607.237,123.545Z" transform="translate(57.649 10.338)" fill="none" stroke="#001e6c" stroke-linecap="round" stroke-linejoin="round" stroke-width="1"/>
    <path id="Caminho_37" data-name="Caminho 37" d="M551.475,256.132s26.291-5.047,37.238,24.148a81.2,81.2,0,0,1,2.745,8.935" transform="translate(52.355 24.285)" fill="none" stroke="#001e6c" stroke-linecap="round" stroke-linejoin="round" stroke-width="1"/>
    <path id="Caminho_38" data-name="Caminho 38" d="M651.682,230.876s5.5-12.211,26.864-4.274,29.918,20.148,16.485,24.421-43.35-20.148-43.35-20.148" transform="translate(61.869 21.258)" fill="#9ebedf"/>
    <path id="Caminho_39" data-name="Caminho 39" d="M651.682,230.876s5.5-12.211,26.864-4.274,29.918,20.148,16.485,24.421S651.682,230.876,651.682,230.876Z" transform="translate(61.869 21.258)" fill="none" stroke="#001e6c" stroke-linecap="round" stroke-linejoin="round" stroke-width="1"/>
    <path id="Caminho_40" data-name="Caminho 40" d="M656.142,231.011s22.026-1.224,32.427,11.625" transform="translate(62.292 21.928)" fill="none" stroke="#001e6c" stroke-linecap="round" stroke-linejoin="round" stroke-width="1"/>
    <path id="Caminho_41" data-name="Caminho 41" d="M653.26,230.3a33.851,33.851,0,0,0-18.2,2.48" transform="translate(60.291 21.832)" fill="none" stroke="#001e6c" stroke-linecap="round" stroke-linejoin="round" stroke-width="1"/>
    <path id="Caminho_42" data-name="Caminho 42" d="M568.762,211.736c-12.886-13.158-25.615-15.144-25.615-15.144s-18.8-4.975-26.142,1.754" transform="translate(49.083 18.496)" fill="none" stroke="#001e6c" stroke-linecap="round" stroke-linejoin="round" stroke-width="1"/>
    <line id="Linha_6" data-name="Linha 6" x1="1.143" y1="5.104" transform="translate(619.317 157.493)" fill="none" stroke="#001e6c" stroke-linecap="round" stroke-linejoin="round" stroke-width="1"/>
    <path id="Caminho_43" data-name="Caminho 43" d="M596.29,417.951s2.737-105.146,0-137.077-15.51-69.336-15.51-69.336l-13.011-58.1" transform="translate(53.902 14.567)" fill="none" stroke="#001e6c" stroke-linecap="round" stroke-linejoin="round" stroke-width="1"/>
    <line id="Linha_7" data-name="Linha 7" y1="5.04" x2="2.353" transform="translate(704.456 180.131)" fill="none" stroke="#001e6c" stroke-linecap="round" stroke-linejoin="round" stroke-width="1"/>
    <path id="Caminho_44" data-name="Caminho 44" d="M599.649,415.85s.912-95.907,4.561-123.276,18.247-70.249,18.247-70.249l22.4-47.988" transform="translate(56.929 16.551)" fill="none" stroke="#001e6c" stroke-linecap="round" stroke-linejoin="round" stroke-width="1"/>
    <path id="Caminho_45" data-name="Caminho 45" d="M614.683,288.155s-6.385,54.984-10.035,117.022" transform="translate(57.403 27.356)" fill="none" stroke="#001e6c" stroke-linecap="round" stroke-linejoin="round" stroke-width="1"/>
    <path id="Caminho_46" data-name="Caminho 46" d="M588.484,404.217s1.825-87.7-1.824-99.556-9.77-6.637-9.77-6.637S560,300.01,553.884,309.8" transform="translate(52.584 28.185)" fill="none" stroke="#001e6c" stroke-linecap="round" stroke-linejoin="round" stroke-width="1"/>
    <path id="Caminho_47" data-name="Caminho 47" d="M589.312,292.556c4.773,26.745.37,112.163.37,112.163" transform="translate(55.947 27.774)" fill="none" stroke="#001e6c" stroke-linecap="round" stroke-linejoin="round" stroke-width="1"/>
    <path id="Caminho_48" data-name="Caminho 48" d="M632.384,235.156c-5.284,3.617-10.361,9.454-13.867,18.8-10.947,29.194-9.7,156.252-9.7,156.252" transform="translate(57.795 22.325)" fill="none" stroke="#001e6c" stroke-linecap="round" stroke-linejoin="round" stroke-width="1"/>
    <path id="Caminho_49" data-name="Caminho 49" d="M567.176,213.448c5.7,6.7,11.233,15.752,15.485,27.972,14.6,41.967,20.07,150.646,17.334,170.717" transform="translate(53.846 20.264)" fill="none" stroke="#001e6c" stroke-linecap="round" stroke-linejoin="round" stroke-width="1"/>
    <path id="Caminho_50" data-name="Caminho 50" d="M601.167,249.317c-.888,52.965-1.517,159.415-1.517,159.415" transform="translate(56.929 23.669)" fill="none" stroke="#001e6c" stroke-linecap="round" stroke-linejoin="round" stroke-width="1"/>
    <path id="Caminho_51" data-name="Caminho 51" d="M601.137,255.614c.6-35.023,1.311-69.3,2.02-87.734,1.824-47.44,4.659-44.78,4.659-44.78s3.377-10.652,22.344-9.428" transform="translate(57.07 10.782)" fill="none" stroke="#001e6c" stroke-linecap="round" stroke-linejoin="round" stroke-width="1"/>
    <path id="Caminho_52" data-name="Caminho 52" d="M580.718,282.243s-15.265-13.612-9.158-20.306,43.96-11.6,54.949-2.9-13.432,20.976-22.59,23.654-20.149,1.785-23.2-.447" transform="translate(54.125 24.148)" fill="#9ebedf"/>
    <path id="Caminho_53" data-name="Caminho 53" d="M580.718,282.243s-15.265-13.612-9.158-20.306,43.96-11.6,54.949-2.9-13.432,20.976-22.59,23.654S583.771,284.475,580.718,282.243Z" transform="translate(54.125 24.148)" fill="none" stroke="#001e6c" stroke-linecap="round" stroke-linejoin="round" stroke-width="1"/>
    <path id="Caminho_54" data-name="Caminho 54" d="M592.7,269.647a26.744,26.744,0,0,0-.339,4.064" transform="translate(56.237 25.599)" fill="none" stroke="#001e6c" stroke-linecap="round" stroke-linejoin="round" stroke-width="1"/>
    <path id="Caminho_55" data-name="Caminho 55" d="M597.806,255.134a69.251,69.251,0,0,0-3.918,10.111" transform="translate(56.382 24.222)" fill="none" stroke="#001e6c" stroke-linecap="round" stroke-linejoin="round" stroke-width="1"/>
    <path id="Caminho_56" data-name="Caminho 56" d="M580.718,363.524s-15.265-13.612-9.158-20.306,43.96-11.6,54.949-2.9-13.432,20.976-22.59,23.654-20.149,1.785-23.2-.447" transform="translate(54.125 31.865)" fill="#9ebedf"/>
    <path id="Caminho_57" data-name="Caminho 57" d="M580.718,363.524s-15.265-13.612-9.158-20.306,43.96-11.6,54.949-2.9-13.432,20.976-22.59,23.654S583.771,365.756,580.718,363.524Z" transform="translate(54.125 31.865)" fill="none" stroke="#001e6c" stroke-linecap="round" stroke-linejoin="round" stroke-width="1"/>
    <path id="Caminho_58" data-name="Caminho 58" d="M597.951,336.415s-5.587,11.175-5.587,19.955" transform="translate(56.237 31.938)" fill="none" stroke="#001e6c" stroke-linecap="round" stroke-linejoin="round" stroke-width="1"/>
    <path id="Caminho_59" data-name="Caminho 59" d="M590.8,328.372s-10.364-9.241-6.218-13.786,29.847-7.878,37.309-1.97-9.12,14.241-15.338,16.059-13.68,1.212-15.753-.3" transform="translate(55.405 29.377)" fill="#9ebedf"/>
    <path id="Caminho_60" data-name="Caminho 60" d="M590.8,328.372s-10.364-9.241-6.218-13.786,29.847-7.878,37.309-1.97-9.12,14.241-15.338,16.059S592.874,329.888,590.8,328.372Z" transform="translate(55.405 29.377)" fill="none" stroke="#001e6c" stroke-linecap="round" stroke-linejoin="round" stroke-width="1"/>
    <path id="Caminho_61" data-name="Caminho 61" d="M602.5,309.967s-3.794,7.587-3.794,13.548" transform="translate(56.839 29.427)" fill="none" stroke="#001e6c" stroke-linecap="round" stroke-linejoin="round" stroke-width="1"/>
    <path id="Caminho_62" data-name="Caminho 62" d="M197.125,326.14s-12.768,19.975-12.333,20.843,8.684,10.638,9.335,11.073,4.559.217,4.559.217l6.514-5.428a5.228,5.228,0,0,0-.651-2.388c-.651-1.086-2.6-1.3-2.6-1.3s3.473-8.467,3.256-10.638-.63-8.706-.63-8.706Z" transform="translate(17.542 30.963)" fill="#fff"/>
    <path id="Caminho_63" data-name="Caminho 63" d="M197.125,326.14s-12.768,19.975-12.333,20.843,8.684,10.638,9.335,11.073,4.559.217,4.559.217l6.514-5.428a5.228,5.228,0,0,0-.651-2.388c-.651-1.086-2.6-1.3-2.6-1.3s3.473-8.467,3.256-10.638-.63-8.706-.63-8.706Z" transform="translate(17.542 30.963)" fill="none" stroke="#001e6c" stroke-linecap="round" stroke-linejoin="round" stroke-width="1"/>
    <line id="Linha_8" data-name="Linha 8" x1="4.343" y2="4.559" transform="translate(215.144 380.117)" fill="none" stroke="#001e6c" stroke-linecap="round" stroke-linejoin="round" stroke-width="1"/>
    <path id="Caminho_64" data-name="Caminho 64" d="M198.828,221.961s42.019,72,42.019,72.983S203.93,339.7,203.93,339.7l-7.445-3.671L212.751,292l-21.235-14.7Z" transform="translate(18.182 21.072)" fill="#fff"/>
    <path id="Caminho_65" data-name="Caminho 65" d="M198.828,221.961s42.019,72,42.019,72.983S203.93,339.7,203.93,339.7l-7.445-3.671L212.751,292l-21.235-14.7Z" transform="translate(18.182 21.072)" fill="none" stroke="#001e6c" stroke-linecap="round" stroke-linejoin="round" stroke-width="1"/>
    <path id="Caminho_66" data-name="Caminho 66" d="M196.626,253.2l9.807,31.567-11.646-7.661Z" transform="translate(18.493 24.038)" fill="#001e6c"/>
    <path id="Caminho_67" data-name="Caminho 67" d="M196.626,253.2l9.807,31.567-11.646-7.661Z" transform="translate(18.493 24.038)" fill="none" stroke="#001e6c" stroke-linecap="round" stroke-linejoin="round" stroke-width="1"/>
    <path id="Caminho_68" data-name="Caminho 68" d="M229.1,283.024l-18.192,3.47,9.811-6.5" transform="translate(20.023 26.582)" fill="none" stroke="#001e6c" stroke-linecap="round" stroke-linejoin="round" stroke-width="1"/>
    <line id="Linha_9" data-name="Linha 9" x2="9.779" y2="3.493" transform="translate(216.531 351.98)" fill="none" stroke="#001e6c" stroke-linecap="round" stroke-linejoin="round" stroke-width="1"/>
    <path id="Caminho_69" data-name="Caminho 69" d="M207.922,250.285l-5.141,46.778,1.028,56.031H114.965l-1.542-25.7s-28.787-88.672-28.53-91.757,47.979-26.473,47.979-26.473l40.352-1.285L208.951,223.3l.257,12.594" transform="translate(8.059 19.735)" fill="#fff"/>
    <path id="Caminho_70" data-name="Caminho 70" d="M207.922,250.285l-5.141,46.778,1.028,56.031H114.965l-1.542-25.7s-28.787-88.672-28.53-91.757,47.979-26.473,47.979-26.473l40.352-1.285L208.951,223.3l.257,12.594" transform="translate(8.059 19.735)" fill="none" stroke="#001e6c" stroke-linecap="round" stroke-linejoin="round" stroke-width="1"/>
    <path id="Caminho_71" data-name="Caminho 71" d="M148.432,223.71l8.3,10.045-5.677,110.056,10.482,12.228,13.1-13.539L161.971,234.192l3.057-14.85-4.8-12.228-21.4,1.748Z" transform="translate(13.179 19.663)" fill="#2943f9"/>
    <path id="Caminho_72" data-name="Caminho 72" d="M126.834,175.248l5.4,26.473L152.793,219.2l13.623-11.309-.515-13.366H159.99l-25.7-12.851Z" transform="translate(12.041 16.637)" fill="#fff"/>
    <path id="Caminho_73" data-name="Caminho 73" d="M126.834,175.248l5.4,26.473L152.793,219.2l13.623-11.309-.515-13.366H159.99l-25.7-12.851Z" transform="translate(12.041 16.637)" fill="none" stroke="#001e6c" stroke-linecap="round" stroke-linejoin="round" stroke-width="1"/>
    <path id="Caminho_74" data-name="Caminho 74" d="M154.768,212.467,159.137,232l12.08-19.276-7.711-12.594.257,5.4Z" transform="translate(14.693 19)" fill="#fff"/>
    <path id="Caminho_75" data-name="Caminho 75" d="M154.768,212.467,159.137,232l12.08-19.276-7.711-12.594.257,5.4Z" transform="translate(14.693 19)" fill="none" stroke="#001e6c" stroke-linecap="round" stroke-linejoin="round" stroke-width="1"/>
    <path id="Caminho_76" data-name="Caminho 76" d="M132.343,199.426l-6.682,11.823,25.7,22.1,2.313-18.763Z" transform="translate(11.93 18.933)" fill="#fff"/>
    <path id="Caminho_77" data-name="Caminho 77" d="M132.343,199.426l-6.682,11.823,25.7,22.1,2.313-18.763Z" transform="translate(11.93 18.933)" fill="none" stroke="#001e6c" stroke-linecap="round" stroke-linejoin="round" stroke-width="1"/>
    <path id="Caminho_78" data-name="Caminho 78" d="M124.978,173.575s-2.772-6.184-5.545-3.2.426,11.088,4.052,13.22,5.971,1.066,5.971,1.066,6.184,10.235,7.462,11.088,20.471,9.6,23.031,10.449,11.088-2.133,12.794-4.478.425-25.589,0-32.412-5.118-33.691-5.972-35.184.854-17.273-3.2-17.273a18.605,18.605,0,0,0-7.889,2.132s2.559-4.691-.427-3.2-7.678,4.9-24.737,11.3S119.007,143.935,119.434,145s5.545,28.574,5.545,28.574" transform="translate(11.225 10.965)" fill="#fff"/>
    <path id="Caminho_79" data-name="Caminho 79" d="M124.978,173.575s-2.772-6.184-5.545-3.2.426,11.088,4.052,13.22,5.971,1.066,5.971,1.066,6.184,10.235,7.462,11.088,20.471,9.6,23.031,10.449,11.088-2.133,12.794-4.478.425-25.589,0-32.412-5.118-33.691-5.972-35.184.854-17.273-3.2-17.273a18.605,18.605,0,0,0-7.889,2.132s2.559-4.691-.427-3.2-7.678,4.9-24.737,11.3S119.007,143.935,119.434,145,124.978,173.575,124.978,173.575Z" transform="translate(11.225 10.965)" fill="none" stroke="#001e6c" stroke-linecap="round" stroke-linejoin="round" stroke-width="1"/>
    <path id="Caminho_80" data-name="Caminho 80" d="M124.43,168.609s-.152-.334-.412-.8Z" transform="translate(11.774 15.931)" fill="none" stroke="#001e6c" stroke-linecap="round" stroke-linejoin="round" stroke-width="1"/>
    <path id="Caminho_81" data-name="Caminho 81" d="M166.632,133.628c-.507-3.069.718-16.776-3.058-16.776a18.6,18.6,0,0,0-7.89,2.134s2.559-4.693-.426-3.2-7.677,4.9-24.736,11.3S119.007,143.934,119.434,145s5.544,28.573,5.544,28.573l3.839-1.279s-2.986-8.957-1.492-10.449,4.265-3.2,4.265-4.05-3.625-8.957-1.493-11.3c1.843-2.027,29.152-10.577,36.537-12.864" transform="translate(11.225 10.965)" fill="#001e6c"/>
    <path id="Caminho_82" data-name="Caminho 82" d="M166.632,133.628c-.507-3.069.718-16.776-3.058-16.776a18.6,18.6,0,0,0-7.89,2.134s2.559-4.693-.426-3.2-7.677,4.9-24.736,11.3S119.007,143.934,119.434,145s5.544,28.573,5.544,28.573l3.839-1.279s-2.986-8.957-1.492-10.449,4.265-3.2,4.265-4.05-3.625-8.957-1.493-11.3C131.938,144.466,159.247,135.916,166.632,133.628Z" transform="translate(11.225 10.965)" fill="none" stroke="#001e6c" stroke-linecap="round" stroke-linejoin="round" stroke-width="1"/>
    <path id="Caminho_83" data-name="Caminho 83" d="M157.686,153.543l3.625,24.309-5.758-1.492" transform="translate(14.768 14.577)" fill="none" stroke="#001e6c" stroke-linecap="round" stroke-linejoin="round" stroke-width="1"/>
    <path id="Caminho_84" data-name="Caminho 84" d="M151.135,155.12s-7.677-1.066-11.941,1.492" transform="translate(13.215 14.706)" fill="none" stroke="#001e6c" stroke-linecap="round" stroke-linejoin="round" stroke-width="2"/>
    <path id="Caminho_85" data-name="Caminho 85" d="M158.864,149.123s.853-7.037,6.184-4.692" transform="translate(15.082 13.666)" fill="none" stroke="#001e6c" stroke-linecap="round" stroke-linejoin="round" stroke-width="2"/>
    <path id="Caminho_86" data-name="Caminho 86" d="M145.037,179.25s5.757,2.345,10.022,2.559" transform="translate(13.769 17.017)" fill="none" stroke="#001e6c" stroke-linecap="round" stroke-linejoin="round" stroke-width="1"/>
    <path id="Caminho_87" data-name="Caminho 87" d="M148.8,161.555c0,1.414-.668,2.559-1.492,2.559s-1.493-1.145-1.493-2.559.669-2.559,1.493-2.559,1.492,1.145,1.492,2.559" transform="translate(13.843 15.095)" fill="#001e6c"/>
    <path id="Caminho_88" data-name="Caminho 88" d="M148.8,161.555c0,1.414-.668,2.559-1.492,2.559s-1.493-1.145-1.493-2.559.669-2.559,1.493-2.559S148.8,160.141,148.8,161.555Z" transform="translate(13.843 15.095)" fill="none" stroke="#001e6c" stroke-linecap="round" stroke-linejoin="round" stroke-width="1"/>
    <path id="Caminho_89" data-name="Caminho 89" d="M165.55,156.687c0,1.412-.668,2.559-1.492,2.559s-1.493-1.146-1.493-2.559.669-2.559,1.493-2.559,1.492,1.145,1.492,2.559" transform="translate(15.433 14.632)" fill="#001e6c"/>
    <path id="Caminho_90" data-name="Caminho 90" d="M165.55,156.687c0,1.412-.668,2.559-1.492,2.559s-1.493-1.146-1.493-2.559.669-2.559,1.493-2.559S165.55,155.273,165.55,156.687Z" transform="translate(15.433 14.632)" fill="none" stroke="#001e6c" stroke-linecap="round" stroke-linejoin="round" stroke-width="1"/>
    <path id="Caminho_91" data-name="Caminho 91" d="M150.807,201.814s-2.986-5.118-2.132-5.332,11.514-3.411,11.3-5.117-3.412-3.2-5.971-2.56-15.566,3.2-15.14,5.119,4.478,13.434,5.971,16.206,3.2,26.227,3.2,26.227H158.91l.427-6.823s5.544-1.066,6.184-2.56.212-5.971.212-5.971,4.905-.852,4.905-1.918,1.492-10.661,0-11.94-11.941-7.891-13.861-7.891-5.971,2.56-5.971,2.56" transform="translate(13.182 17.91)" fill="#fff"/>
    <path id="Caminho_92" data-name="Caminho 92" d="M150.807,201.814s-2.986-5.118-2.132-5.332,11.514-3.411,11.3-5.117-3.412-3.2-5.971-2.56-15.566,3.2-15.14,5.119,4.478,13.434,5.971,16.206,3.2,26.227,3.2,26.227H158.91l.427-6.823s5.544-1.066,6.184-2.56.212-5.971.212-5.971,4.905-.852,4.905-1.918,1.492-10.661,0-11.94-11.941-7.891-13.861-7.891S150.807,201.814,150.807,201.814Z" transform="translate(13.182 17.91)" fill="none" stroke="#001e6c" stroke-linecap="round" stroke-linejoin="round" stroke-width="1"/>
    <path id="Caminho_93" data-name="Caminho 93" d="M163.4,218.662l.214-4.265,1.918-1.066" transform="translate(15.513 20.253)" fill="none" stroke="#001e6c" stroke-linecap="round" stroke-linejoin="round" stroke-width="1"/>
    <line id="Linha_10" data-name="Linha 10" x1="4.478" y2="2.986" transform="translate(159.511 219.724)" fill="none" stroke="#001e6c" stroke-linecap="round" stroke-linejoin="round" stroke-width="1"/>
    <path id="Caminho_94" data-name="Caminho 94" d="M127.014,235.123,150.4,274.7l2.06-42.484h10.875s6.857,43.768,8.4,54.563,1.285,21.847-.256,24.16-8.395,9.966-10.966,9.966-10.368-4.311-11.652-6.367c-.66-1.056-16.673-9.909-30.324-24.035-12.944-13.394-26.316-32.81-26.316-32.81" transform="translate(8.755 22.046)" fill="#fff"/>
    <path id="Caminho_95" data-name="Caminho 95" d="M127.014,235.123,150.4,274.7l2.06-42.484h10.875s6.857,43.768,8.4,54.563,1.285,21.847-.256,24.16-8.395,9.966-10.966,9.966-10.368-4.311-11.652-6.367c-.66-1.056-16.673-9.909-30.324-24.035-12.944-13.394-26.316-32.81-26.316-32.81" transform="translate(8.755 22.046)" fill="none" stroke="#001e6c" stroke-linecap="round" stroke-linejoin="round" stroke-width="1"/>
    <line id="Linha_11" data-name="Linha 11" x1="2.827" y2="25.188" transform="translate(156.331 296.751)" fill="none" stroke="#001e6c" stroke-linecap="round" stroke-linejoin="round" stroke-width="1"/>
    <line id="Linha_12" data-name="Linha 12" x2="11.566" transform="translate(160.701 260.511)" fill="none" stroke="#001e6c" stroke-linecap="round" stroke-linejoin="round" stroke-width="1"/>
    <path id="Caminho_96" data-name="Caminho 96" d="M112.358,340.5v59.687h90.456L201.2,340.5Z" transform="translate(10.667 32.326)" fill="#001e6c"/>
    <path id="Caminho_97" data-name="Caminho 97" d="M112.358,340.5v59.687h90.456L201.2,340.5Z" transform="translate(10.667 32.326)" fill="none" stroke="#001e6c" stroke-linecap="round" stroke-linejoin="round" stroke-width="1"/>
    <path id="Caminho_98" data-name="Caminho 98" d="M356.491,136.763s-13.371,3.6-16.972,12.343-1.029,10.543-.257,10.286,2.571-3.6,2.571-3.6-2.828,7.972.771,11.315,9.516,7.971,9.516,7.971-.772,10.286-3.859,16.715-7.456,13.629-5.142,16.457,5.142-1.285,5.142-1.285,2.572,6.429,11.572,8.743,27.757,5.549,35.472,4.52a26.621,26.621,0,0,0,12.873-5.548s-2.315,4.371,1.8,1.8,6.686-5.915,10.8-15.173,6.687-23.915,4.629-35.23-12.086-20.829-18.774-26.229-20.313-10.543-32.657-9.258-17.486,6.172-17.486,6.172" transform="translate(32.055 12.379)" fill="#001e6c"/>
    <path id="Caminho_99" data-name="Caminho 99" d="M356.491,136.763s-13.371,3.6-16.972,12.343-1.029,10.543-.257,10.286,2.571-3.6,2.571-3.6-2.828,7.972.771,11.315,9.516,7.971,9.516,7.971-.772,10.286-3.859,16.715-7.456,13.629-5.142,16.457,5.142-1.285,5.142-1.285,2.572,6.429,11.572,8.743,27.757,5.549,35.472,4.52a26.621,26.621,0,0,0,12.873-5.548s-2.315,4.371,1.8,1.8,6.686-5.915,10.8-15.173,6.687-23.915,4.629-35.23-12.086-20.829-18.774-26.229-20.313-10.543-32.657-9.258S356.491,136.763,356.491,136.763Z" transform="translate(32.055 12.379)" fill="none" stroke="#001e6c" stroke-linecap="round" stroke-linejoin="round" stroke-width="1"/>
    <path id="Caminho_100" data-name="Caminho 100" d="M415.814,228.874l3.376,42.416-17.835,33-7.45-15.17Z" transform="translate(37.396 21.729)" fill="#2943f9"/>
    <path id="Caminho_101" data-name="Caminho 101" d="M403.371,261.358l-5.165,33.125-4.452-7.3Z" transform="translate(37.382 24.812)" fill="#001e6c"/>
    <path id="Caminho_102" data-name="Caminho 102" d="M403.371,261.358l-5.165,33.125-4.452-7.3Z" transform="translate(37.382 24.812)" fill="none" stroke="#001e6c" stroke-linecap="round" stroke-linejoin="round" stroke-width="1"/>
    <path id="Caminho_103" data-name="Caminho 103" d="M308.842,398.563l3.653-40.91,107.39,4.383,1.826,35.8Z" transform="translate(29.32 33.954)" fill="#001e6c"/>
    <path id="Caminho_104" data-name="Caminho 104" d="M308.842,398.563l3.653-40.91,107.39,4.383,1.826,35.8Z" transform="translate(29.32 33.954)" fill="none" stroke="#001e6c" stroke-linecap="round" stroke-linejoin="round" stroke-width="1"/>
    <path id="Caminho_105" data-name="Caminho 105" d="M365.326,149.557s-1.665,10.945.238,12.848,11.421,6.425,11.421,6.425-1.19-12.135-1.19-12.849,6.663,16.417,9.993,18.559,9.517,7.377,9.517,7.377.953,2.855,1.9,2.617,3.093-2.379,3.093-2.379,6.9-1.9,6.186,3.569-5.473,12.848-8.328,13.324a20.122,20.122,0,0,1-5,.238s-3.807,11.421-4.283,15.227-.714,4.521-.238,5.949,11.421,6.663,13.8,7.377,21.414,8.566,21.414,8.566l-22.6,63.291,23.318,83.515s-34.977,8.09-68.288,5-47.111-10.231-47.111-10.231l28.314-80.186-10.231-68.763,37.594-6.9.714-8.566s-9.28-2.617-12.373-9.28c-3.207-6.909-.238-19.034,0-22.6a74.214,74.214,0,0,0,0-12.61c-.475-4.045,1.428-16.655,12.135-19.511" transform="translate(29.352 14.198)" fill="#2943f9"/>
    <path id="Caminho_106" data-name="Caminho 106" d="M345.134,276.558s25.793,15.476,26.825,15.82" transform="translate(32.766 26.256)" fill="none" stroke="#001e6c" stroke-linecap="round" stroke-linejoin="round" stroke-width="1"/>
    <line id="Linha_13" data-name="Linha 13" x2="18.227" y2="12.38" transform="translate(388.218 312.787)" fill="none" stroke="#001e6c" stroke-linecap="round" stroke-linejoin="round" stroke-width="1"/>
    <path id="Caminho_107" data-name="Caminho 107" d="M394.674,226.043c-4.023-1.873-9.2-4.609-9.522-5.58-.476-1.428-.238-2.142.238-5.949s4.283-15.228,4.283-15.228a20.056,20.056,0,0,0,5-.238c2.856-.475,7.614-7.852,8.328-13.324s-6.186-3.569-6.186-3.569-2.142,2.142-3.093,2.379-1.9-2.617-1.9-2.617-6.185-5.235-9.517-7.375-9.993-19.273-9.993-18.559,1.19,12.848,1.19,12.848-9.517-4.52-11.421-6.424-.238-12.848-.238-12.848c-10.707,2.855-12.61,15.465-12.135,19.511a74.211,74.211,0,0,1,0,12.61c-.238,3.568-3.207,15.695,0,22.6,3.093,6.663,12.373,9.28,12.373,9.28l-.714,8.566-10.511,1.929-4.9,28.088L384.8,254.9Z" transform="translate(32.843 14.199)" fill="#fff"/>
    <path id="Caminho_108" data-name="Caminho 108" d="M394.674,226.043c-4.023-1.873-9.2-4.609-9.522-5.58-.476-1.428-.238-2.142.238-5.949s4.283-15.228,4.283-15.228a20.056,20.056,0,0,0,5-.238c2.856-.475,7.614-7.852,8.328-13.324s-6.186-3.569-6.186-3.569-2.142,2.142-3.093,2.379-1.9-2.617-1.9-2.617-6.185-5.235-9.517-7.375-9.993-19.273-9.993-18.559,1.19,12.848,1.19,12.848-9.517-4.52-11.421-6.424-.238-12.848-.238-12.848c-10.707,2.855-12.61,15.465-12.135,19.511a74.211,74.211,0,0,1,0,12.61c-.238,3.568-3.207,15.695,0,22.6,3.093,6.663,12.373,9.28,12.373,9.28l-.714,8.566-10.511,1.929-4.9,28.088L384.8,254.9Z" transform="translate(32.843 14.199)" fill="none" stroke="#001e6c" stroke-linecap="round" stroke-linejoin="round" stroke-width="1"/>
    <line id="Linha_14" data-name="Linha 14" x1="0.321" y2="7.384" transform="translate(393.88 236.326)" fill="none" stroke="#001e6c" stroke-linecap="round" stroke-linejoin="round" stroke-width="1"/>
    <path id="Caminho_109" data-name="Caminho 109" d="M383.1,201.168a24.654,24.654,0,0,1-13.654,5.777" transform="translate(35.074 19.098)" fill="none" stroke="#001e6c" stroke-linecap="round" stroke-linejoin="round" stroke-width="1"/>
    <path id="Caminho_110" data-name="Caminho 110" d="M358.5,192a12.767,12.767,0,0,0,13.324-3.331" transform="translate(34.035 17.912)" fill="none" stroke="#001e6c" stroke-linecap="round" stroke-linejoin="round" stroke-width="1"/>
    <path id="Caminho_111" data-name="Caminho 111" d="M361.511,168.7a12.4,12.4,0,0,1,0,4.04c-.289,3.174-6,11.566-4.27,12.432s3.23.5,6.693.787" transform="translate(33.884 16.016)" fill="none" stroke="#001e6c" stroke-linecap="round" stroke-linejoin="round" stroke-width="1"/>
    <path id="Caminho_112" data-name="Caminho 112" d="M357.73,173.2c0,1.491-.749,2.7-1.672,2.7s-1.671-1.209-1.671-2.7.748-2.7,1.671-2.7,1.672,1.209,1.672,2.7" transform="translate(33.644 16.187)" fill="#001e6c"/>
    <path id="Caminho_113" data-name="Caminho 113" d="M372.291,174.726c0,1.491-.749,2.7-1.671,2.7s-1.672-1.209-1.672-2.7.748-2.7,1.672-2.7,1.671,1.209,1.671,2.7" transform="translate(35.027 16.332)" fill="#001e6c"/>
    <path id="Caminho_114" data-name="Caminho 114" d="M353.212,167.6s3.859-2.828,6.943-1.285" transform="translate(33.533 15.745)" fill="none" stroke="#001e6c" stroke-linecap="round" stroke-linejoin="round" stroke-width="1"/>
    <path id="Caminho_115" data-name="Caminho 115" d="M368.713,166.981s5.658-.773,7.715,3.856" transform="translate(35.004 15.848)" fill="none" stroke="#001e6c" stroke-linecap="round" stroke-linejoin="round" stroke-width="1"/>
    <path id="Caminho_116" data-name="Caminho 116" d="M333.374,222.406l-4.429,30.766-13.5,28.075-26.88-40.311s-.918-6.425-2.447-8.872-6.731-3.671-9.79-5.812-5.2-8.872-7.648-6.424-.918,6.729,0,7.954,7.954,7.036,7.954,7.036l-17.13,5.506s-13.461-6.424-14.684-3.977,9.789,14.072,14.072,15.3,21.414-1.53,21.414-1.53,19.273,47.111,23.555,52.312,9.79,11.625,11.013,11.318,27.708-28.206,27.708-28.206Z" transform="translate(23.233 20.82)" fill="#fff"/>
    <path id="Caminho_117" data-name="Caminho 117" d="M333.374,222.406l-4.429,30.766-13.5,28.075-26.88-40.311s-.918-6.425-2.447-8.872-6.731-3.671-9.79-5.812-5.2-8.872-7.648-6.424-.918,6.729,0,7.954,7.954,7.036,7.954,7.036l-17.13,5.506s-13.461-6.424-14.684-3.977,9.789,14.072,14.072,15.3,21.414-1.53,21.414-1.53,19.273,47.111,23.555,52.312,9.79,11.625,11.013,11.318,27.708-28.206,27.708-28.206Z" transform="translate(23.233 20.82)" fill="none" stroke="#001e6c" stroke-linecap="round" stroke-linejoin="round" stroke-width="1"/>
    <path id="Caminho_118" data-name="Caminho 118" d="M282.079,243.2S277.554,240,275.957,240s-17.566,2.662-17.566,2.662-8.251-4.524-9.848-3.726" transform="translate(23.596 22.675)" fill="none" stroke="#001e6c" stroke-linecap="round" stroke-linejoin="round" stroke-width="1"/>
    <path id="Caminho_119" data-name="Caminho 119" d="M321.805,300.778c7.36-7.464,14.645-15.51,14.645-15.51l-9.207-63.131L322.814,252.9l-13.5,28.075Z" transform="translate(29.365 21.089)" fill="#2943f9"/>
    <path id="Caminho_120" data-name="Caminho 120" d="M420.67,258.968s.8-13.574,3.726-15.7,12.51-5.056,13.574-6.92,2.662-1.064,2.4,1.331-3.194,5.855-3.992,6.122-4.791,2.661-4.791,2.661a31.3,31.3,0,0,0,3.992,2.928c.8.266,11.179,2.4,11.179,2.4s10.38-8.518,10.38-6.388-6.92,15.17-7.718,16.768-6.654,2.13-9.05,2.4-13.84,1.33-13.84,1.33-2.928,30.076-3.194,37-4.791,13.308-7.186,14.9-15.7-9.847-15.438-14.106,16.768-38.06,16.768-38.06Z" transform="translate(38.042 22.34)" fill="#fff"/>
    <path id="Caminho_121" data-name="Caminho 121" d="M420.67,258.968s.8-13.574,3.726-15.7,12.51-5.056,13.574-6.92,2.662-1.064,2.4,1.331-3.194,5.855-3.992,6.122-4.791,2.661-4.791,2.661a31.3,31.3,0,0,0,3.992,2.928c.8.266,11.179,2.4,11.179,2.4s10.38-8.518,10.38-6.388-6.92,15.17-7.718,16.768-6.654,2.13-9.05,2.4-13.84,1.33-13.84,1.33-2.928,30.076-3.194,37-4.791,13.308-7.186,14.9-15.7-9.847-15.438-14.106,16.768-38.06,16.768-38.06Z" transform="translate(38.042 22.34)" fill="none" stroke="#001e6c" stroke-linecap="round" stroke-linejoin="round" stroke-width="1"/>
    <path id="Caminho_122" data-name="Caminho 122" d="M421.994,259.8s2.511-5.213,6.237-4.414,14.905,2.129,14.905,2.129,5.056-6.654,7.186-6.92" transform="translate(40.063 23.791)" fill="none" stroke="#001e6c" stroke-linecap="round" stroke-linejoin="round" stroke-width="1"/>
    <path id="Caminho_123" data-name="Caminho 123" d="M576.43,291.489H500.577a15.092,15.092,0,0,0-14.772,12l-21.23,101.358H571.268l19.933-95.17a15.091,15.091,0,0,0-14.771-18.186" transform="translate(44.105 27.673)" fill="#001e6c"/>
    <path id="Caminho_124" data-name="Caminho 124" d="M576.43,291.489H500.577a15.092,15.092,0,0,0-14.772,12l-21.23,101.358H571.268l19.933-95.17A15.091,15.091,0,0,0,576.43,291.489Z" transform="translate(44.105 27.673)" fill="none" stroke="#001e6c" stroke-linecap="round" stroke-linejoin="round" stroke-width="1"/>
    <path id="Caminho_125" data-name="Caminho 125" d="M490.4,288.041l-48.562,23-13.941,62.27s-6.041.232-6.274,1.859a24.186,24.186,0,0,0,.233,4.879s-4.183.232-4.647,3.949a23.3,23.3,0,0,0,.7,9.527c.7,1.858,7.668,10.456,9.759,10.688a39.588,39.588,0,0,1,5.343.93c.7.232,119.2,0,119.2,0s4.647-.464,5.809-1.394a5.191,5.191,0,0,0,1.395-3.021s3.252-2.556,3.485-4.183-1.162-11.617-1.162-13.709,8.364-62.734,8.83-66.916-.93-5.81-2.091-6.971-13.942-8.6-19.518-10.92-24.718-10.8-24.718-10.8Z" transform="translate(39.59 27.268)" fill="#fff"/>
    <path id="Caminho_126" data-name="Caminho 126" d="M490.4,288.041l-48.562,23-13.941,62.27s-6.041.232-6.274,1.859a24.186,24.186,0,0,0,.233,4.879s-4.183.232-4.647,3.949a23.3,23.3,0,0,0,.7,9.527c.7,1.858,7.668,10.456,9.759,10.688a39.588,39.588,0,0,1,5.343.93c.7.232,119.2,0,119.2,0s4.647-.464,5.809-1.394a5.191,5.191,0,0,0,1.395-3.021s3.252-2.556,3.485-4.183-1.162-11.617-1.162-13.709,8.364-62.734,8.83-66.916-.93-5.81-2.091-6.971-13.942-8.6-19.518-10.92-24.718-10.8-24.718-10.8Z" transform="translate(39.59 27.268)" fill="none" stroke="#001e6c" stroke-linecap="round" stroke-linejoin="round" stroke-width="1"/>
    <path id="Caminho_127" data-name="Caminho 127" d="M489.977,329.525c1.2-.6,27.324-31.253,34.746-39.975a61.006,61.006,0,0,0-7.1-2.554l-32.753.706-9.6,4.944c2.494,7.922,9.956,28.241,11.46,32,1.859,4.647,1.859,5.576,3.253,4.879" transform="translate(45.12 27.246)" fill="#2943f9"/>
    <path id="Caminho_128" data-name="Caminho 128" d="M481.067,225.2s-8.94,10.653-8.94,14.647,1.711,8.37-.191,10.653-12.555,7.229-10.462,9.892a25.294,25.294,0,0,0,5.326,4.755l-.38,6.088s3.8,14.837,5.9,15.6,8.751.57,8.751.57,8.37,33.289,10.462,33.669,27.424-27.8,27.424-27.8l-.982-11.2s9.892-16.169,12.555-23.587-2.663-22.827-10.273-29.866-23.017-8.179-28.723-7.609a23.43,23.43,0,0,0-10.462,4.185" transform="translate(43.785 20.97)" fill="#fff"/>
    <path id="Caminho_129" data-name="Caminho 129" d="M481.067,225.2s-8.94,10.653-8.94,14.647,1.711,8.37-.191,10.653-12.555,7.229-10.462,9.892a25.294,25.294,0,0,0,5.326,4.755l-.38,6.088s3.8,14.837,5.9,15.6,8.751.57,8.751.57,8.37,33.289,10.462,33.669,27.424-27.8,27.424-27.8l-.982-11.2s9.892-16.169,12.555-23.587-2.663-22.827-10.273-29.866-23.017-8.179-28.723-7.609A23.43,23.43,0,0,0,481.067,225.2Z" transform="translate(43.785 20.97)" fill="none" stroke="#001e6c" stroke-linecap="round" stroke-linejoin="round" stroke-width="1"/>
    <path id="Caminho_130" data-name="Caminho 130" d="M474.344,239.649s4.905-1.549,8.329,1.495" transform="translate(45.033 22.714)" fill="none" stroke="#001e6c" stroke-linecap="round" stroke-linejoin="round" stroke-width="2"/>
    <path id="Caminho_131" data-name="Caminho 131" d="M479.525,248.218c-.459,1.4-1.4,2.344-2.095,2.115s-.895-1.548-.436-2.945,1.4-2.344,2.095-2.115.895,1.548.436,2.945" transform="translate(45.261 23.282)" fill="#001e6c"/>
    <path id="Caminho_132" data-name="Caminho 132" d="M479.525,248.218c-.459,1.4-1.4,2.344-2.095,2.115s-.895-1.548-.436-2.945,1.4-2.344,2.095-2.115S479.984,246.821,479.525,248.218Z" transform="translate(45.261 23.282)" fill="none" stroke="#001e6c" stroke-linecap="round" stroke-linejoin="round" stroke-width="1"/>
    <path id="Caminho_133" data-name="Caminho 133" d="M481.948,216.847s-17.5,3.044-13.316,6.468,27.2,9.511,32.147,11.223-8.37,4.755-6.468,6.277,5.707,8.751,5.707,8.751-.761,9.511-3.233,14.647S482.709,276.2,482.709,276.2s-6.087-8.179-9.321-8.179-7.8.761-7.418,3.8,1.711,11.223,1.9,11.984-2.283,8.37.38,10.082,16.359-3.8,22.447-6.468,8.94-3.994,9.32-7.8S506.3,258.7,506.3,258.7s4-2.663,7.61-2.092,3.615,8.56.38,11.414a88.768,88.768,0,0,1-7.418,5.707l10.653,8.94s23.4-23.588,23.778-32.719-11.223-25.3-16.169-30.436-33.48-6.468-43.181-2.663" transform="translate(44.236 20.379)" fill="#001e6c"/>
    <path id="Caminho_134" data-name="Caminho 134" d="M481.948,216.847s-17.5,3.044-13.316,6.468,27.2,9.511,32.147,11.223-8.37,4.755-6.468,6.277,5.707,8.751,5.707,8.751-.761,9.511-3.233,14.647S482.709,276.2,482.709,276.2s-6.087-8.179-9.321-8.179-7.8.761-7.418,3.8,1.711,11.223,1.9,11.984-2.283,8.37.38,10.082,16.359-3.8,22.447-6.468,8.94-3.994,9.32-7.8S506.3,258.7,506.3,258.7s4-2.663,7.61-2.092,3.615,8.56.38,11.414a88.768,88.768,0,0,1-7.418,5.707l10.653,8.94s23.4-23.588,23.778-32.719-11.223-25.3-16.169-30.436S491.65,213.042,481.948,216.847Z" transform="translate(44.236 20.379)" fill="none" stroke="#001e6c" stroke-linecap="round" stroke-linejoin="round" stroke-width="1"/>
    <path id="Caminho_135" data-name="Caminho 135" d="M466.154,269.236s6.056-2.3,7.78-1.98c3.2.6,6.306,3.994,5.188,6.6a11.3,11.3,0,0,1-4.782,5.7c-2.135,1.068-3.025,1.6-3.381.534a3.417,3.417,0,0,0-2.37-2.3c-1.069-.178-.736,1.024-.736,1.024s-.987-8.155-1.7-9.578" transform="translate(44.255 25.369)" fill="#fff"/>
    <path id="Caminho_136" data-name="Caminho 136" d="M466.154,269.236s6.056-2.3,7.78-1.98c3.2.6,6.306,3.994,5.188,6.6a11.3,11.3,0,0,1-4.782,5.7c-2.135,1.068-3.025,1.6-3.381.534a3.417,3.417,0,0,0-2.37-2.3c-1.069-.178-.736,1.024-.736,1.024S466.866,270.66,466.154,269.236Z" transform="translate(44.255 25.369)" fill="none" stroke="#001e6c" stroke-linecap="round" stroke-linejoin="round" stroke-width="1"/>
    <path id="Caminho_137" data-name="Caminho 137" d="M468.089,271.6a14.79,14.79,0,0,0,7.232-2.045" transform="translate(44.439 25.59)" fill="none" stroke="#001e6c" stroke-linecap="round" stroke-linejoin="round" stroke-width="1"/>
    <path id="Caminho_138" data-name="Caminho 138" d="M424.4,372.31s9.526,1.394,13.477,10.223" transform="translate(40.291 35.346)" fill="none" stroke="#001e6c" stroke-linecap="round" stroke-linejoin="round" stroke-width="1"/>
    <path id="Caminho_139" data-name="Caminho 139" d="M429.921,368.066s7.9,2.091,10.456,5.344" transform="translate(40.815 34.943)" fill="none" stroke="#001e6c" stroke-linecap="round" stroke-linejoin="round" stroke-width="1"/>
    <path id="Caminho_140" data-name="Caminho 140" d="M526.974,332.667l-6.789,40.154S509.5,374.68,509.5,377.932s5.809,11.618,5.809,11.618" transform="translate(48.37 31.582)" fill="none" stroke="#001e6c" stroke-linecap="round" stroke-linejoin="round" stroke-width="1"/>
    <line id="Linha_15" data-name="Linha 15" x1="0.425" y2="2.548" transform="translate(576.03 357.003)" fill="none" stroke="#001e6c" stroke-linecap="round" stroke-linejoin="round" stroke-width="1"/>
    <path id="Caminho_141" data-name="Caminho 141" d="M537.362,364.99a22.606,22.606,0,0,1,3.413.347" transform="translate(51.015 34.651)" fill="none" stroke="#001e6c" stroke-linecap="round" stroke-linejoin="round" stroke-width="1"/>
    <path id="Caminho_142" data-name="Caminho 142" d="M521.8,368.119a55.683,55.683,0,0,1,13.68-3.051" transform="translate(49.538 34.658)" fill="none" stroke="#001e6c" stroke-linecap="round" stroke-linejoin="round" stroke-width="1"/>
    <path id="Caminho_143" data-name="Caminho 143" d="M537.933,370.612s7.668,3.253,10.688,13.709" transform="translate(51.07 35.185)" fill="none" stroke="#001e6c" stroke-linecap="round" stroke-linejoin="round" stroke-width="1"/>
    <path id="Caminho_144" data-name="Caminho 144" d="M550.169,396.462s.7-5.112-5.577-13.244-12.315-8.828-13.941-8.132-45.773,16.73-45.773,16.73-27.185-15.568-29.509-14.406-16.962,19.285-16.962,19.285Z" transform="translate(41.621 35.59)" fill="#fff"/>
    <path id="Caminho_145" data-name="Caminho 145" d="M550.169,396.462s.7-5.112-5.577-13.244-12.315-8.828-13.941-8.132-45.773,16.73-45.773,16.73-27.185-15.568-29.509-14.406-16.962,19.285-16.962,19.285Z" transform="translate(41.621 35.59)" fill="none" stroke="#001e6c" stroke-linecap="round" stroke-linejoin="round" stroke-width="1"/>
    <line id="Linha_16" data-name="Linha 16" y1="15.335" x2="14.638" transform="translate(486.303 416.95)" fill="none" stroke="#001e6c" stroke-linecap="round" stroke-linejoin="round" stroke-width="1"/>
    <line id="Linha_17" data-name="Linha 17" y1="11.849" x2="13.244" transform="translate(494.203 419.738)" fill="none" stroke="#001e6c" stroke-linecap="round" stroke-linejoin="round" stroke-width="1"/>
    <line id="Linha_18" data-name="Linha 18" y1="8.83" x2="9.062" transform="translate(504.427 423.688)" fill="none" stroke="#001e6c" stroke-linecap="round" stroke-linejoin="round" stroke-width="1"/>
    <line id="Linha_19" data-name="Linha 19" y1="3.021" x2="3.717" transform="translate(514.65 428.799)" fill="none" stroke="#001e6c" stroke-linecap="round" stroke-linejoin="round" stroke-width="1"/>
    <line id="Linha_20" data-name="Linha 20" y1="5.256" x2="0.763" transform="translate(491.116 350.73)" fill="none" stroke="#001e6c" stroke-linecap="round" stroke-linejoin="round" stroke-width="1"/>
    <line id="Linha_21" data-name="Linha 21" y1="69.505" x2="10.099" transform="translate(480.03 362.779)" fill="none" stroke="#001e6c" stroke-linecap="round" stroke-linejoin="round" stroke-width="1"/>
    <path id="Caminho_146" data-name="Caminho 146" d="M438.506,396.36s-1.394-13.709-7.9-16.729-13.941.465-16.73,1.162S386,396.592,386,396.592Z" transform="translate(36.645 35.926)" fill="#fff"/>
    <path id="Caminho_147" data-name="Caminho 147" d="M438.506,396.36s-1.394-13.709-7.9-16.729-13.941.465-16.73,1.162S386,396.592,386,396.592Z" transform="translate(36.645 35.926)" fill="none" stroke="#001e6c" stroke-linecap="round" stroke-linejoin="round" stroke-width="1"/>
    <path id="Caminho_148" data-name="Caminho 148" d="M408.64,388.04s-6.737-5.111-9.758-7.668-4.879-2.788-10.92-2.091S377.507,396.4,377.507,396.4h22.537Z" transform="translate(35.839 35.881)" fill="#fff"/>
    <path id="Caminho_149" data-name="Caminho 149" d="M408.64,388.04s-6.737-5.111-9.758-7.668-4.879-2.788-10.92-2.091S377.507,396.4,377.507,396.4h22.537Z" transform="translate(35.839 35.881)" fill="none" stroke="#001e6c" stroke-linecap="round" stroke-linejoin="round" stroke-width="1"/>
    <path id="Caminho_150" data-name="Caminho 150" d="M403.622,384.83s-8.364,9.294-7.436,9.991,5.344.464,5.344.464,7.668-5.809,7.9-7.435-5.809-3.021-5.809-3.021" transform="translate(37.606 36.534)" fill="#fff"/>
    <path id="Caminho_151" data-name="Caminho 151" d="M403.622,384.83s-8.364,9.294-7.436,9.991,5.344.464,5.344.464,7.668-5.809,7.9-7.435S403.622,384.83,403.622,384.83Z" transform="translate(37.606 36.534)" fill="none" stroke="#001e6c" stroke-linecap="round" stroke-linejoin="round" stroke-width="1"/>
    <path id="Caminho_152" data-name="Caminho 152" d="M394.762,380.232l-8.364,16.5-4.647-.929s5.111-15.8,5.809-17.427,4.414-2.09,7.667,0" transform="translate(36.242 35.789)" fill="#fff"/>
    <path id="Caminho_153" data-name="Caminho 153" d="M394.762,380.232l-8.364,16.5-4.647-.929s5.111-15.8,5.809-17.427,4.414-2.09,7.667,0" transform="translate(36.242 35.789)" fill="none" stroke="#001e6c" stroke-linecap="round" stroke-linejoin="round" stroke-width="1"/>
    <path id="Caminho_154" data-name="Caminho 154" d="M387.962,378.268s-6.9-.773-7.93.833-2.526,17.29-2.526,17.29l4.647-.7Z" transform="translate(35.839 35.894)" fill="#fff"/>
    <path id="Caminho_155" data-name="Caminho 155" d="M387.962,378.268s-6.9-.773-7.93.833-2.526,17.29-2.526,17.29l4.647-.7Z" transform="translate(35.839 35.894)" fill="none" stroke="#001e6c" stroke-linecap="round" stroke-linejoin="round" stroke-width="1"/>
    <path id="Caminho_156" data-name="Caminho 156" d="M379.584,379.746s-5.5,1.835-5.734,3.325.115,12.845.115,12.845l3.9.318Z" transform="translate(35.485 36.052)" fill="#fff"/>
    <path id="Caminho_157" data-name="Caminho 157" d="M379.584,379.746s-5.5,1.835-5.734,3.325.115,12.845.115,12.845l3.9.318Z" transform="translate(35.485 36.052)" fill="none" stroke="#001e6c" stroke-linecap="round" stroke-linejoin="round" stroke-width="1"/>
    <path id="Caminho_158" data-name="Caminho 158" d="M374.439,384.249s-5.39,4.014-5.734,4.932-3.21,4.128-2.064,4.358,5.16-2.868,5.16-2.868l2.408-1.031Z" transform="translate(34.782 36.479)" fill="#fff"/>
    <path id="Caminho_159" data-name="Caminho 159" d="M374.439,384.249s-5.39,4.014-5.734,4.932-3.21,4.128-2.064,4.358,5.16-2.868,5.16-2.868l2.408-1.031Z" transform="translate(34.782 36.479)" fill="none" stroke="#001e6c" stroke-linecap="round" stroke-linejoin="round" stroke-width="1"/>
    <line id="Linha_22" data-name="Linha 22" x1="718.49" transform="translate(1.018 432.517)" fill="none" stroke="#001e6c" stroke-linecap="round" stroke-linejoin="round" stroke-width="1"/>
    <rect id="Retângulo_14" data-name="Retângulo 14" width="78.387" height="2.283" transform="translate(404.836 430.235)" fill="#5089c6"/>
    <rect id="Retângulo_15" data-name="Retângulo 15" width="78.387" height="2.283" transform="translate(404.836 430.235)" fill="none" stroke="#001e6c" stroke-linecap="round" stroke-linejoin="round" stroke-width="1"/>
    <path id="Caminho_160" data-name="Caminho 160" d="M365.4,337.086H271.671l14.927,63.43h93.724Z" transform="translate(25.791 32.002)" fill="#5089c6"/>
    <path id="Caminho_161" data-name="Caminho 161" d="M365.4,337.086H271.671l14.927,63.43h93.724Z" transform="translate(25.791 32.002)" fill="none" stroke="#001e6c" stroke-linecap="round" stroke-linejoin="round" stroke-width="1"/>
    <path id="Caminho_162" data-name="Caminho 162" d="M323.226,367.655a5.918,5.918,0,1,1-5.918-5.918,5.918,5.918,0,0,1,5.918,5.918" transform="translate(29.562 34.342)" fill="#2943f9"/>
    <path id="Caminho_163" data-name="Caminho 163" d="M74.966,365.866s-5.548-3.783-9.835-.757-4.793,18.157,0,23.454c2.754,3.044,10.087.5,10.087.5l.5-7.313s-4.622,4.627-7.061-.252c-1.513-3.026-.757-10.088,2.018-11.349s5.3,1.513,5.3,1.513Z" transform="translate(5.86 34.551)" fill="#2943f9"/>
    <path id="Caminho_164" data-name="Caminho 164" d="M76.63,355.338s9.181-3.884,9.181-11.3-4.591-7.415-5.3-12.711" transform="translate(7.275 31.455)" fill="none" stroke="#001e6c" stroke-linecap="round" stroke-linejoin="round" stroke-width="1"/>
    <path id="Caminho_165" data-name="Caminho 165" d="M86.63,331.005s-.706,4.237,3.884,7.769,2.472,9.18.354,12" transform="translate(8.221 31.425)" fill="none" stroke="#001e6c" stroke-linecap="round" stroke-linejoin="round" stroke-width="1"/>
    <path id="Caminho_166" data-name="Caminho 166" d="M87.916,327.763a7.4,7.4,0,0,1,3.531-3.531" transform="translate(8.346 30.782)" fill="none" stroke="#001e6c" stroke-linecap="round" stroke-linejoin="round" stroke-width="1"/>
    <rect id="Retângulo_16" data-name="Retângulo 16" width="34.164" height="42.43" transform="translate(79.423 390.088)" fill="#2943f9"/>
    <path id="Caminho_167" data-name="Caminho 167" d="M119.129,65.256h-1.605V54.88H95.517V65.256H93.911A29.183,29.183,0,0,0,64.728,94.439v2.907h83.584V94.439a29.183,29.183,0,0,0-29.183-29.183" transform="translate(6.145 5.21)" fill="#001e6c"/>
    <path id="Caminho_168" data-name="Caminho 168" d="M119.129,65.256h-1.605V54.88H95.517V65.256H93.911A29.183,29.183,0,0,0,64.728,94.439v2.907h83.584V94.439A29.183,29.183,0,0,0,119.129,65.256Z" transform="translate(6.145 5.21)" fill="none" stroke="#001e6c" stroke-linecap="round" stroke-linejoin="round" stroke-width="1"/>
    <line id="Linha_23" data-name="Linha 23" y1="60.963" transform="translate(112.665 0.547)" fill="none" stroke="#001e6c" stroke-linecap="round" stroke-linejoin="round" stroke-width="1"/>
    <path id="Caminho_169" data-name="Caminho 169" d="M425.523,65.256h-1.605V54.88H401.911V65.256h-1.605a29.183,29.183,0,0,0-29.183,29.183v2.907h83.584V94.439a29.183,29.183,0,0,0-29.183-29.183" transform="translate(35.233 5.21)" fill="#001e6c"/>
    <path id="Caminho_170" data-name="Caminho 170" d="M425.523,65.256h-1.605V54.88H401.911V65.256h-1.605a29.183,29.183,0,0,0-29.183,29.183v2.907h83.584V94.439A29.183,29.183,0,0,0,425.523,65.256Z" transform="translate(35.233 5.21)" fill="none" stroke="#001e6c" stroke-linecap="round" stroke-linejoin="round" stroke-width="1"/>
    <line id="Linha_24" data-name="Linha 24" y1="60.963" transform="translate(448.147 0.547)" fill="none" stroke="#001e6c" stroke-linecap="round" stroke-linejoin="round" stroke-width="1"/>
    <path id="Caminho_171" data-name="Caminho 171" d="M328.663,101.281H275.2a12.126,12.126,0,0,0-12.124,12.124v22.548A12.125,12.125,0,0,0,275.2,148.079h42.061l9.594,11.85v-11.85h1.8a12.124,12.124,0,0,0,12.124-12.125V113.405a12.125,12.125,0,0,0-12.124-12.124" transform="translate(24.976 9.615)" fill="#fff"/>
    <path id="Caminho_172" data-name="Caminho 172" d="M328.663,101.281H275.2a12.126,12.126,0,0,0-12.124,12.124v22.548A12.125,12.125,0,0,0,275.2,148.079h42.061l9.594,11.85v-11.85h1.8a12.124,12.124,0,0,0,12.124-12.125V113.405A12.125,12.125,0,0,0,328.663,101.281Z" transform="translate(24.976 9.615)" fill="none" stroke="#001e6c" stroke-linecap="round" stroke-linejoin="round" stroke-width="1"/>
    <path id="Caminho_173" data-name="Caminho 173" d="M288.009,122.658a3.3,3.3,0,1,1-3.3-3.3,3.3,3.3,0,0,1,3.3,3.3" transform="translate(26.716 11.332)" fill="#2943f9"/>
    <path id="Caminho_174" data-name="Caminho 174" d="M302.15,122.658a3.3,3.3,0,1,1-3.3-3.3,3.3,3.3,0,0,1,3.3,3.3" transform="translate(28.059 11.332)" fill="#2943f9"/>
    <path id="Caminho_175" data-name="Caminho 175" d="M316.291,122.658a3.3,3.3,0,1,1-3.3-3.3,3.3,3.3,0,0,1,3.3,3.3" transform="translate(29.401 11.332)" fill="#2943f9"/>
  </g>
</svg>
