<svg xmlns="http://www.w3.org/2000/svg" xmlns:xlink="http://www.w3.org/1999/xlink" width="139.425" height="121.21" viewBox="0 0 139.425 121.21">
  <defs>
    <clipPath id="clip-path">
      <rect id="Retângulo_70" data-name="Retângulo 70" width="139.425" height="121.21" fill="#fff"/>
    </clipPath>
  </defs>
  <g id="Grupo_176" data-name="Grupo 176" transform="translate(0 0)">
    <g id="Grupo_175" data-name="Grupo 175" transform="translate(0 0)" clip-path="url(#clip-path)">
      <path id="Caminho_643" data-name="Caminho 643" d="M68.047,120.687a2.906,2.906,0,0,0,3.328,0c2.779-1.948,68.047-48.122,68.047-86.1,0-16.407-9.672-29.092-25.241-33.105-14.4-3.705-33.556.891-44.5,16.359A42.385,42.385,0,0,0,24.835,1.292C9.517,5.384,0,18.146,0,34.59c0,37.974,65.268,84.149,68.047,86.1M26.332,6.894a33.867,33.867,0,0,1,8.676-1.107A36.809,36.809,0,0,1,67.2,24.693a2.9,2.9,0,0,0,5.05-.044c8.873-16.08,27.084-21,40.487-17.545,13.076,3.369,20.889,13.644,20.889,27.487,0,31.8-53.7,72.659-63.914,80.146C59.492,107.25,5.8,66.392,5.8,34.59c0-13.907,7.677-24.261,20.534-27.7" transform="translate(0 -0.002)" fill="#fff"/>
    </g>
  </g>
</svg>
