<svg id="linkedin" xmlns="http://www.w3.org/2000/svg" width="16.001" height="16.001" viewBox="0 0 16.001 16.001">
  <path id="Caminho_50" data-name="Caminho 50" d="M18.826,18.525h0V12.656c0-2.871-.618-5.082-3.974-5.082A3.484,3.484,0,0,0,11.718,9.3h-.047V7.842H8.489V18.525H11.8v-5.29c0-1.393.264-2.74,1.989-2.74,1.7,0,1.725,1.589,1.725,2.829v5.2Z" transform="translate(-2.829 -2.524)" fill="#b7b7b7"/>
  <path id="Caminho_51" data-name="Caminho 51" d="M.4,7.977H3.714V18.66H.4Z" transform="translate(-0.132 -2.659)" fill="#b7b7b7"/>
  <path id="Caminho_52" data-name="Caminho 52" d="M1.921,0A1.93,1.93,0,1,0,3.843,1.921,1.922,1.922,0,0,0,1.921,0Z" fill="#b7b7b7"/>
</svg>