<svg xmlns="http://www.w3.org/2000/svg" xmlns:xlink="http://www.w3.org/1999/xlink" width="169.481" height="31.167" viewBox="0 0 169.481 31.167">
  <defs>
    <clipPath id="clip-path">
      <rect id="Retângulo_3" data-name="Retângulo 3" width="169.481" height="31.167" fill="#fff"/>
    </clipPath>
  </defs>
  <g id="Grupo_3" data-name="Grupo 3" transform="translate(0 0)">
    <path id="Caminho_1" data-name="Caminho 1" d="M67.328,3.561V24.932H63.042V15.839H53.887v9.093H49.6V3.561h4.287v8.787h9.155V3.561Z" transform="translate(-25.756 -1.849)" fill="#fff"/>
    <g id="Grupo_2" data-name="Grupo 2" transform="translate(0 0)">
      <g id="Grupo_1" data-name="Grupo 1" clip-path="url(#clip-path)">
        <path id="Caminho_2" data-name="Caminho 2" d="M107.151,22.2h-12.4a4.218,4.218,0,0,0,1.286,2.878,3.964,3.964,0,0,0,2.787,1.041,3.5,3.5,0,0,0,3.4-2.052h4.624a7.726,7.726,0,0,1-2.817,4.027,8.222,8.222,0,0,1-5.113,1.576,8.845,8.845,0,0,1-4.394-1.086,7.645,7.645,0,0,1-3.031-3.077A9.427,9.427,0,0,1,90.4,20.915a9.6,9.6,0,0,1,1.072-4.624,7.486,7.486,0,0,1,3-3.062,9.636,9.636,0,0,1,8.772-.031,7.336,7.336,0,0,1,2.97,2.955,8.937,8.937,0,0,1,1.057,4.394,10.161,10.161,0,0,1-.123,1.653m-4.317-2.878a3.4,3.4,0,0,0-1.194-2.649,4.231,4.231,0,0,0-2.847-1,3.887,3.887,0,0,0-2.679.965,4.237,4.237,0,0,0-1.332,2.679Z" transform="translate(-46.944 -6.314)" fill="#fff"/>
        <path id="Caminho_3" data-name="Caminho 3" d="M130.448,16.292a7.523,7.523,0,0,1,2.786-3.062,7.426,7.426,0,0,1,3.935-1.072,6.918,6.918,0,0,1,3.322.766,6.742,6.742,0,0,1,2.281,1.929V12.434h4.317V29.4h-4.317v-2.48a6.376,6.376,0,0,1-2.281,1.975,6.983,6.983,0,0,1-3.353.781,7.209,7.209,0,0,1-3.9-1.1,7.706,7.706,0,0,1-2.786-3.108,9.974,9.974,0,0,1-1.026-4.608,9.815,9.815,0,0,1,1.026-4.563m11.711,1.945a4.32,4.32,0,0,0-1.653-1.714,4.409,4.409,0,0,0-2.235-.6,4.3,4.3,0,0,0-3.843,2.281,5.328,5.328,0,0,0-.628,2.649,5.5,5.5,0,0,0,.628,2.679,4.52,4.52,0,0,0,1.653,1.761,4.2,4.2,0,0,0,2.19.612,4.418,4.418,0,0,0,2.235-.6,4.318,4.318,0,0,0,1.653-1.715,5.5,5.5,0,0,0,.612-2.679,5.5,5.5,0,0,0-.612-2.679" transform="translate(-67.206 -6.314)" fill="#fff"/>
        <path id="Caminho_4" data-name="Caminho 4" d="M171.123,10.438A7.394,7.394,0,0,1,177.875,6.3a7.209,7.209,0,0,1,3.153.72,6.311,6.311,0,0,1,2.388,1.914V.885h4.348V23.543h-4.348V21.032a5.808,5.808,0,0,1-2.235,2.021,7.011,7.011,0,0,1-3.337.765,7.282,7.282,0,0,1-3.919-1.1,7.67,7.67,0,0,1-2.8-3.108A9.974,9.974,0,0,1,170.1,15a9.816,9.816,0,0,1,1.026-4.563m11.711,1.945a4.32,4.32,0,0,0-1.653-1.714,4.409,4.409,0,0,0-2.235-.6,4.3,4.3,0,0,0-3.843,2.281A5.328,5.328,0,0,0,174.475,15a5.5,5.5,0,0,0,.628,2.679,4.52,4.52,0,0,0,1.653,1.761,4.2,4.2,0,0,0,2.19.612,4.418,4.418,0,0,0,2.235-.6,4.319,4.319,0,0,0,1.653-1.715,5.5,5.5,0,0,0,.612-2.679,5.5,5.5,0,0,0-.612-2.679" transform="translate(-88.328 -0.46)" fill="#fff"/>
        <path id="Caminho_5" data-name="Caminho 5" d="M217.34,12.939a6.91,6.91,0,0,1,3.322-.781A7.42,7.42,0,0,1,224.6,13.23a7.553,7.553,0,0,1,2.787,3.047,9.8,9.8,0,0,1,1.025,4.578,9.987,9.987,0,0,1-1.025,4.608A7.725,7.725,0,0,1,224.6,28.57a7.266,7.266,0,0,1-3.935,1.1,6.849,6.849,0,0,1-3.292-.766,7.05,7.05,0,0,1-2.312-1.929v10.5h-4.287V12.433h4.287v2.45a6.511,6.511,0,0,1,2.281-1.944m6.062,5.266a4.352,4.352,0,0,0-1.653-1.7,4.43,4.43,0,0,0-2.22-.582,4.275,4.275,0,0,0-2.189.6,4.427,4.427,0,0,0-1.653,1.73,5.409,5.409,0,0,0-.628,2.664,5.4,5.4,0,0,0,.628,2.664,4.426,4.426,0,0,0,1.653,1.73,4.321,4.321,0,0,0,4.409-.015,4.552,4.552,0,0,0,1.653-1.745,5.476,5.476,0,0,0,.628-2.694,5.328,5.328,0,0,0-.628-2.649" transform="translate(-109.45 -6.314)" fill="#fff"/>
        <path id="Caminho_6" data-name="Caminho 6" d="M257.829,12.987a6,6,0,0,1,3.046-.765v4.5h-1.133a4.343,4.343,0,0,0-3.046.949,4.374,4.374,0,0,0-1.026,3.307V29.43h-4.287V12.467h4.287V15.1a6.035,6.035,0,0,1,2.159-2.113" transform="translate(-130.538 -6.347)" fill="#fff"/>
        <rect id="Retângulo_1" data-name="Retângulo 1" width="4.287" height="16.963" transform="translate(132.119 6.12)" fill="#fff"/>
        <path id="Caminho_7" data-name="Caminho 7" d="M292.546,26.173h7.563v3.521H287.678v-3.46l7.409-9.982h-7.379V12.732h12.309v3.46Z" transform="translate(-149.385 -6.611)" fill="#fff"/>
        <path id="Caminho_8" data-name="Caminho 8" d="M334.209,22.2h-12.4a4.218,4.218,0,0,0,1.286,2.878,3.964,3.964,0,0,0,2.787,1.041,3.5,3.5,0,0,0,3.4-2.052H333.9a7.726,7.726,0,0,1-2.817,4.027,8.222,8.222,0,0,1-5.113,1.576,8.845,8.845,0,0,1-4.394-1.086,7.645,7.645,0,0,1-3.031-3.077,9.427,9.427,0,0,1-1.087-4.593,9.6,9.6,0,0,1,1.072-4.624,7.486,7.486,0,0,1,3-3.062,9.636,9.636,0,0,1,8.772-.031,7.336,7.336,0,0,1,2.97,2.955,8.938,8.938,0,0,1,1.057,4.394,10.162,10.162,0,0,1-.123,1.653m-4.317-2.878a3.4,3.4,0,0,0-1.194-2.649,4.231,4.231,0,0,0-2.847-1,3.887,3.887,0,0,0-2.679.965,4.237,4.237,0,0,0-1.332,2.679Z" transform="translate(-164.851 -6.314)" fill="#fff"/>
        <path id="Caminho_9" data-name="Caminho 9" d="M0,24.932V19.373L12.462,3.561h5.559V9.119L5.559,24.932Z" transform="translate(0 -1.849)" fill="#fff"/>
        <rect id="Retângulo_2" data-name="Retângulo 2" width="4.287" height="4.1" transform="translate(132.119)" fill="#fff"/>
      </g>
    </g>
  </g>
</svg>