<svg xmlns="http://www.w3.org/2000/svg" xmlns:xlink="http://www.w3.org/1999/xlink" width="76.093" height="142.911" viewBox="0 0 76.093 142.911">
  <defs>
    <clipPath id="clip-path">
      <rect id="Retângulo_64" data-name="Retângulo 64" width="76.093" height="142.911" fill="#fff"/>
    </clipPath>
  </defs>
  <g id="Grupo_164" data-name="Grupo 164" transform="translate(0 0)">
    <g id="Grupo_163" data-name="Grupo 163" transform="translate(0 0)" clip-path="url(#clip-path)">
      <path id="Caminho_630" data-name="Caminho 630" d="M8.2,73.673,4.167,89.846.09,106.192a3.005,3.005,0,0,0,.855,2.923l7.769,7.309L35.993,142.1a2.994,2.994,0,0,0,4.057.046l35.045-31.546a3.017,3.017,0,0,0,.93-2.874l-.894-4.116-4.7-21.745-3.61-16.679L62.059,43.2,59.941,33.42a9.447,9.447,0,0,0,3.666-7.467V9.459A9.458,9.458,0,0,0,54.171,0H24.131a9.46,9.46,0,0,0-9.436,9.459V25.954a9.452,9.452,0,0,0,3.564,7.388L14.425,48.7Zm29.893,62.152-20.828-19.6,9.064-1.476,42.939-6.987ZM68.6,101.78l-56.859,9.252-5.408-5.093L9.49,93.285l55.662-7.444ZM63.877,79.949,53.717,81.307l-42.662,5.7,2.482-9.959,48.022-7.809ZM20.695,9.459a3.445,3.445,0,0,1,3.436-3.446H54.171a3.448,3.448,0,0,1,3.442,3.446V25.954a3.438,3.438,0,0,1-2.939,3.393H23.631a3.432,3.432,0,0,1-2.936-3.393ZM55.509,41.291,47.944,42.3,21.316,45.865l2.617-10.5h30.29ZM19.751,52.138l37.034-4.951,3.5,16.173L15.122,70.7Z" transform="translate(-0.001 0.001)" fill="#fff"/>
    </g>
  </g>
</svg>