<svg xmlns="http://www.w3.org/2000/svg" xmlns:xlink="http://www.w3.org/1999/xlink" width="121.897" height="130.605" viewBox="0 0 121.897 130.605">
  <defs>
    <clipPath id="clip-path">
      <rect id="Retângulo_68" data-name="Retângulo 68" width="121.897" height="130.605" fill="#fff"/>
    </clipPath>
  </defs>
  <g id="Grupo_172" data-name="Grupo 172" transform="translate(0 0)">
    <g id="Grupo_171" data-name="Grupo 171" transform="translate(0 0.001)" clip-path="url(#clip-path)">
      <path id="Caminho_638" data-name="Caminho 638" d="M113.116,73.058c-7.429-6.4-18.484-9.121-32.868-8.126A35.469,35.469,0,1,0,39,63.946C28.616,62.918,6.747,63.683.1,86.783a2.9,2.9,0,0,0-.1.747v40.377a2.7,2.7,0,0,0,2.693,2.7H119.2a2.7,2.7,0,0,0,2.7-2.7V89.455a.876.876,0,0,0-.009-.154,24.92,24.92,0,0,0-8.776-16.243m-83.2-37.509a30.4,30.4,0,1,1,30.544,30.47h-.3a30.467,30.467,0,0,1-30.248-30.47m29.868,41.3h2.6l3.847,7.961L60.963,95.059l-3.924-7.733Zm-3.2-5.415a1.812,1.812,0,0,1,1.807-1.813h5.114a1.814,1.814,0,0,1,0,3.629H58.391a1.813,1.813,0,0,1-1.807-1.816m9.464,4.748a5.271,5.271,0,0,0,2.666-6.1,35.005,35.005,0,0,0,6.162-2.132L68.28,80.8Zm-9.853.189-1.6,6.127-6.98-13.763a35.293,35.293,0,0,0,5.486,1.63,5.313,5.313,0,0,0-.106,1.069,5.415,5.415,0,0,0,3.2,4.937m60.317,48.839H5.389V87.919C12.133,65.372,36.4,68.682,42.107,69.8l16.444,32.419a2.681,2.681,0,0,0,2.392,1.473h.009a2.693,2.693,0,0,0,2.392-1.462L79.684,70.383c13.32-1.072,23.351,1.178,29.832,6.688a19.623,19.623,0,0,1,7,12.481Z" transform="translate(0 -0.001)" fill="#fff"/>
    </g>
  </g>
</svg>
