<svg xmlns="http://www.w3.org/2000/svg" xmlns:xlink="http://www.w3.org/1999/xlink" width="118.076" height="131.283" viewBox="0 0 118.076 131.283">
  <defs>
    <clipPath id="clip-path">
      <rect id="Retângulo_72" data-name="Retângulo 72" width="118.076" height="131.283" fill="#fff"/>
    </clipPath>
  </defs>
  <g id="Grupo_180" data-name="Grupo 180" transform="translate(0 0)">
    <g id="Grupo_179" data-name="Grupo 179" transform="translate(0 0)" clip-path="url(#clip-path)">
      <path id="Caminho_645" data-name="Caminho 645" d="M59.041,131.283A59.038,59.038,0,0,0,67.7,13.846a9.487,9.487,0,1,0-16.856-.059,59.033,59.033,0,0,0,8.194,117.5M59.29,6.3a3.184,3.184,0,1,1-3.184,3.184A3.188,3.188,0,0,1,59.29,6.3m-.249,13.209A52.735,52.735,0,1,1,6.3,72.242,52.791,52.791,0,0,1,59.041,19.509" transform="translate(0 -0.001)" fill="#fff"/>
      <path id="Caminho_646" data-name="Caminho 646" d="M48.954,97.189A43.731,43.731,0,1,0,5.221,53.457,43.781,43.781,0,0,0,48.954,97.189M87.641,53.457A38.689,38.689,0,1,1,48.954,14.772,38.733,38.733,0,0,1,87.641,53.457" transform="translate(10.085 18.787)" fill="#fff"/>
      <path id="Caminho_647" data-name="Caminho 647" d="M14.426,63.416a1.235,1.235,0,0,0,.715-.223L31.5,51.892a11.406,11.406,0,0,0,2.114.205A11.046,11.046,0,0,0,44.644,41.063c0-.366-.021-.727-.056-1.085l13.884-21.9a1.259,1.259,0,0,0-1.738-1.735L34.979,30.126a10.968,10.968,0,0,0-12.4,10.938,10.912,10.912,0,0,0,.6,3.544L13.335,61.525a1.257,1.257,0,0,0,1.091,1.891m23.8-32.361L53.33,21.481,43.715,36.646a11.112,11.112,0,0,0-5.491-5.59m-4.611,5.28a4.73,4.73,0,1,1-4.731,4.729,4.735,4.735,0,0,1,4.731-4.729M28.556,50.861l-10.2,7.05L24.519,47.3a11.084,11.084,0,0,0,4.037,3.559" transform="translate(25.428 31.178)" fill="#fff"/>
      <path id="Caminho_648" data-name="Caminho 648" d="M7.527,25.475a1.259,1.259,0,0,0,1.261,1.261h9.319a1.261,1.261,0,1,0,0-2.521H8.788a1.26,1.26,0,0,0-1.261,1.261" transform="translate(14.539 46.77)" fill="#fff"/>
      <path id="Caminho_649" data-name="Caminho 649" d="M30.144,26.732h9.319a1.259,1.259,0,0,0,0-2.518H30.144a1.259,1.259,0,1,0,0,2.518" transform="translate(55.789 46.77)" fill="#fff"/>
      <path id="Caminho_650" data-name="Caminho 650" d="M21.055,23.786a1.259,1.259,0,0,0,1.261-1.261V13.209a1.261,1.261,0,1,0-2.521,0v9.316a1.259,1.259,0,0,0,1.261,1.261" transform="translate(38.233 23.074)" fill="#fff"/>
      <path id="Caminho_651" data-name="Caminho 651" d="M21.055,33.3a1.259,1.259,0,0,0-1.261,1.263v9.316a1.261,1.261,0,1,0,2.521,0V34.565A1.259,1.259,0,0,0,21.055,33.3" transform="translate(38.233 64.323)" fill="#fff"/>
    </g>
  </g>
</svg>