<svg id="Grupo_154" data-name="Grupo 154" xmlns="http://www.w3.org/2000/svg" xmlns:xlink="http://www.w3.org/1999/xlink" width="14.83" height="12.124" viewBox="0 0 14.83 12.124">
  <defs>
    <clipPath id="clip-path">
      <rect id="Retângulo_42" data-name="Retângulo 42" width="14.83" height="12.124" fill="#b7b7b7"/>
    </clipPath>
  </defs>
  <g id="Grupo_153" data-name="Grupo 153" transform="translate(0 0)" clip-path="url(#clip-path)">
    <path id="Caminho_627" data-name="Caminho 627" d="M.694,10.783a7.274,7.274,0,0,0,1.061,0,5.955,5.955,0,0,0,1.154-.206,6.188,6.188,0,0,0,1.74-.79,3.034,3.034,0,0,0,.4-.3,3.106,3.106,0,0,1-1.762-.608A3.019,3.019,0,0,1,2.211,7.364a3.031,3.031,0,0,0,1.313-.045,4.331,4.331,0,0,1-1.986-1.5,3.07,3.07,0,0,1-.409-1.494c0-.078.043-.037.067-.024a3.027,3.027,0,0,0,.951.313c.107.017.217.018.34.027A3.137,3.137,0,0,1,1.547.548c.19.208.36.4.538.585A8.556,8.556,0,0,0,3.65,2.406,8.584,8.584,0,0,0,6.034,3.462a8.683,8.683,0,0,0,1.731.287c.113.007.123-.035.108-.128A2.978,2.978,0,0,1,8.9.718a2.9,2.9,0,0,1,2.18-.71,2.96,2.96,0,0,1,1.955.886.171.171,0,0,0,.182.044,6.078,6.078,0,0,0,1.669-.63c.037-.021.077-.037.151-.071a3.137,3.137,0,0,1-1.277,1.647,5.48,5.48,0,0,0,1.658-.428,1.621,1.621,0,0,1-.26.383A5.733,5.733,0,0,1,14.04,2.921a.231.231,0,0,0-.1.219,8.512,8.512,0,0,1-.293,2.484,9.12,9.12,0,0,1-1.577,3.211A8.342,8.342,0,0,1,10.1,10.69a8.03,8.03,0,0,1-1.859.934,9.034,9.034,0,0,1-1.88.434,9.406,9.406,0,0,1-1.834.039,8.38,8.38,0,0,1-2.267-.491,8.8,8.8,0,0,1-1.6-.773.441.441,0,0,1-.053-.045.087.087,0,0,1,.081-.005" transform="translate(-0.586 0)" fill="#b7b7b7"/>
    <path id="Caminho_628" data-name="Caminho 628" d="M.115,245.861l-.081.005c-.011,0-.027,0-.03-.006s0-.019.016-.019a.154.154,0,0,1,.1.019" transform="translate(-0.001 -235.087)" fill="#b7b7b7"/>
  </g>
</svg>
